<svg width="76" height="76" viewBox="0 0 76 76" xmlns="http://www.w3.org/2000/svg"><title>Group 16</title><g transform="translate(.55 .87)" fill="none" fill-rule="evenodd"><circle fill="#FF5000" cx="37.5" cy="37.5" r="37.5"/><path d="M48.13 56.25V21.67c0-.48-.4-.9-.88-.9h-2.18v-1.2h1.23c1.24 0 2.24-1 2.24-2.3 0-1.26-1-2.27-2.24-2.27H29c-1.23 0-2.23 1-2.23 2.32 0 1.25 1 2.26 2.23 2.26h1.24v1.2h-2.18c-.47 0-.88.4-.88.9v34.57C26 56.3 25 57.33 25 58.58s1 2.26 2.24 2.26H48c1.25 0 2.25-1 2.25-2.32.06-1.2-.88-2.2-2.12-2.27zm-19.2 0v-2.67h17.43v2.67H28.94zM32 49.23V22.56h11.3v26.67H32zm14.36 1.8v.76H28.94V51h17.42zm0-28.47v26.67h-1.3V22.56h1.3zm-17.83-5.3c0-.3.24-.47.47-.47h17.3c.3 0 .48.22.48.52 0 .3-.24.48-.48.48H29c-.3 0-.47-.24-.47-.54zM32 19.58h11.3v1.2H32v-1.2zm-1.76 2.98v26.67h-1.3V22.56h1.3zm17.83 36.5H27.24c-.3 0-.47-.25-.47-.54 0-.3.23-.48.47-.48H48c.3 0 .48.24.48.54.06.23-.17.47-.4.47z" fill="#FFF"/><ellipse fill="#FFF" cx="37.75" cy="44.73" rx="1.75" ry="1.73"/><ellipse fill="#FFF" cx="37.75" cy="38.73" rx="1.75" ry="1.73"/></g></svg>