<svg width="75" height="75" viewBox="0 0 75 75" xmlns="http://www.w3.org/2000/svg"><title>Group 24</title><g fill="none" fill-rule="evenodd"><circle fill="#FF5000" cx="37.504" cy="37.504" r="37.504"/><path d="M51.185 51.034l-5.634-10.64c.338-.113.62-.339.845-.677.338-.506.395-1.07.113-1.632l-1.24-2.872a5.074 5.074 0 0 1-.338-1.238c.282-.17.45-.394.45-.732 0-.338-.168-.62-.45-.732.113-.507.282-1.07.564-1.52l1.352-2.421c.282-.563.282-1.182 0-1.69a1.332 1.332 0 0 0-.789-.675l4.507-7.77c.282-.45.282-1.07.057-1.52-.282-.563-.733-.9-1.296-.957-1.747-.169-5.522-.506-11.212-.506-5.86 0-10.367.337-12.508.563-.564.056-1.015.394-1.296.844-.226.507-.226 1.07.056 1.52l4.451 7.77c-.338.169-.62.394-.789.676a1.533 1.533 0 0 0 0 1.689l1.353 2.42c.281.45.45.958.563 1.52-.282.113-.507.451-.507.789s.225.675.507.788c-.056.394-.169.845-.338 1.182l-1.24 2.872c-.225.506-.169 1.126.113 1.632.225.338.507.564.845.676L23.69 51.034c-1.014 1.858-.732 4.11.563 5.743l1.409 1.689a.639.639 0 0 1 .169.45v.113a2.02 2.02 0 0 0 2.028 2.027h19.157a2.02 2.02 0 0 0 2.028-2.027v-.113c0-.169.057-.338.17-.45l1.408-1.69a5.115 5.115 0 0 0 .563-5.742zM38.114 17.141c5.465 0 9.184.281 10.93.506l-4.789 8.277c-1.578-.113-4.395-.282-6.817-.282-2.423 0-5.297.17-6.818.282l-4.733-8.277c2.141-.225 6.536-.506 12.227-.506zM29.55 27.669c.056 0 4.45-.338 7.888-.338 3.437 0 7.775.338 7.831.338l.113.056-1.352 2.421c-.395.676-.62 1.464-.733 2.252h-5.352a.803.803 0 0 0-.676-.337c-.282 0-.564.168-.677.337h-4.958c-.112-.788-.338-1.576-.732-2.252l-1.352-2.42v-.057zm1.577 8.276c.282-.563.395-1.182.507-1.801h4.395l-1.014 2.871c-.17.45.056.9.507 1.07.113.056.169.056.282.056a.847.847 0 0 0 .788-.563l.733-2.027.563 1.239c.17.45.676.62 1.127.45.451-.169.62-.675.451-1.126l-.958-2.027h4.733c.056.62.225 1.239.507 1.802l1.24 2.871-.057.057h-.112c-.057 0-3.156.337-7.381.337-4.226 0-7.381-.337-7.381-.337-.057 0-.113-.057-.17-.057l1.24-2.815zm18.199 19.762l-1.409 1.69c-.338.45-.563.956-.563 1.52v.112a.363.363 0 0 1-.338.338H27.859c-.225 0-.338-.17-.338-.338v-.113c0-.563-.169-1.07-.563-1.52l-1.409-1.689c-.901-1.07-1.07-2.59-.394-3.885l5.916-11.204c1.296.113 3.55.226 6.31.226 2.761 0 5.015-.17 6.31-.226l5.917 11.204a3.395 3.395 0 0 1-.282 3.885z" fill="#FFF"/></g></svg>