<svg width="267" height="27" viewBox="0 0 267 27" xmlns="http://www.w3.org/2000/svg"><title>/(coffee|tea)cademy/</title><path d="M.018 21.747c-.059.176.03.293.206.293h2.2c.206 0 .323-.088.382-.293L9.321 1.732c.06-.177-.029-.294-.205-.294H6.915c-.206 0-.323.088-.382.294L.018 21.747zm16.141 2.142c.147.206.294.294.5.294h1.437c.176 0 .265-.118.176-.294-1.731-3.434-2.729-7.777-2.729-11.798 0-4.02.969-8.276 2.73-11.798.088-.176 0-.293-.177-.293h-1.438c-.205 0-.352.088-.499.293-2.523 3.522-3.756 7.778-3.756 11.798 0 4.021 1.203 8.218 3.756 11.798zm11.006-1.849c2.113 0 3.786-.85 4.9-2.172.089-.146.118-.293-.028-.41l-1.85-1.615c-.146-.117-.293-.117-.41.03-.705.792-1.438 1.232-2.612 1.232-1.262 0-2.23-.616-2.641-1.82-.235-.703-.294-1.555-.294-2.64 0-1.086.059-1.908.294-2.612.41-1.233 1.379-1.85 2.64-1.85 1.175 0 1.908.44 2.613 1.233.117.147.264.176.41.059l1.85-1.614c.146-.118.117-.294.029-.411-1.115-1.35-2.788-2.201-4.901-2.201-2.847 0-5.019 1.38-5.84 3.903-.294.88-.44 1.996-.44 3.493 0 1.496.146 2.612.44 3.492.821 2.524 2.993 3.903 5.84 3.903zm13.97 0c2.846 0 5.018-1.438 5.81-3.903.323-.998.47-1.937.47-3.492 0-1.556-.147-2.495-.47-3.493-.792-2.465-2.964-3.903-5.81-3.903-2.877 0-5.048 1.438-5.84 3.903-.324.998-.47 1.937-.47 3.493 0 1.555.146 2.494.47 3.492.792 2.465 2.963 3.903 5.84 3.903zm0-2.935c-1.321 0-2.26-.675-2.671-1.848-.235-.734-.294-1.41-.294-2.612 0-1.204.059-1.85.294-2.612.41-1.174 1.35-1.85 2.67-1.85 1.321 0 2.23.676 2.642 1.85.235.763.293 1.408.293 2.612 0 1.203-.058 1.878-.293 2.612-.411 1.173-1.32 1.848-2.642 1.848zm13.235 2.612c.176 0 .294-.117.294-.293V10.3c0-.117.058-.176.176-.176h2.524c.176 0 .293-.117.293-.293V7.865c0-.176-.117-.293-.293-.293H54.84c-.118 0-.176-.059-.176-.176v-.969c0-1.38.323-1.731 1.79-1.731h.91c.176 0 .293-.118.293-.294V2.054c0-.176-.117-.293-.293-.293h-1.292c-3.081 0-4.695 1.438-4.695 4.725v.91c0 .117-.059.176-.176.176h-.94c-.175 0-.293.117-.293.293v1.967c0 .176.118.293.294.293h.939c.117 0 .176.059.176.176v11.123c0 .176.117.293.293.293h2.7zm9.626 0c.176 0 .294-.117.294-.293V10.3c0-.117.059-.176.176-.176h2.524c.176 0 .293-.117.293-.293V7.865c0-.176-.117-.293-.293-.293h-2.524c-.117 0-.176-.059-.176-.176v-.969c0-1.38.323-1.731 1.79-1.731h.91c.176 0 .293-.118.293-.294V2.054c0-.176-.117-.293-.293-.293h-1.291c-3.082 0-4.696 1.438-4.696 4.725v.91c0 .117-.059.176-.176.176h-.94c-.175 0-.293.117-.293.293v1.967c0 .176.118.293.294.293h.939c.117 0 .176.059.176.176v11.123c0 .176.117.293.293.293h2.7zm11.828.323c2.612 0 4.607-.998 5.81-2.406.118-.147.118-.294-.029-.411l-1.731-1.526c-.147-.118-.294-.088-.44.058-.705.763-1.732 1.35-3.317 1.35-1.585 0-2.7-.763-3.17-2.142a3.11 3.11 0 0 1-.205-1.086c0-.117.059-.176.176-.176h8.716c.206 0 .323-.117.323-.293 0-2.29-.146-3.258-.47-4.256-.792-2.406-2.905-3.903-5.81-3.903-2.818 0-4.99 1.438-5.782 3.903-.293.91-.47 2.025-.47 3.493 0 1.467.206 2.553.5 3.463.792 2.465 2.905 3.932 5.899 3.932zm2.817-8.98c0 .117-.059.176-.176.176h-5.547c-.117 0-.176-.059-.176-.176 0-.5.059-.851.176-1.203.382-1.145 1.438-1.82 2.788-1.82 1.32 0 2.377.675 2.759 1.82.117.352.176.704.176 1.203zm12.473 8.98c2.612 0 4.607-.998 5.81-2.406.118-.147.118-.294-.029-.411l-1.731-1.526c-.147-.118-.294-.088-.44.058-.705.763-1.732 1.35-3.317 1.35-1.585 0-2.7-.763-3.17-2.142a3.11 3.11 0 0 1-.205-1.086c0-.117.059-.176.176-.176h8.717c.205 0 .322-.117.322-.293 0-2.29-.146-3.258-.47-4.256-.791-2.406-2.905-3.903-5.81-3.903-2.817 0-4.99 1.438-5.781 3.903-.294.91-.47 2.025-.47 3.493 0 1.467.205 2.553.499 3.463.792 2.465 2.905 3.932 5.899 3.932zm2.817-8.98c0 .117-.059.176-.176.176h-5.547c-.117 0-.176-.059-.176-.176 0-.5.059-.851.176-1.203.382-1.145 1.438-1.82 2.788-1.82 1.321 0 2.378.675 2.76 1.82.116.352.175.704.175 1.203zm10.595 11.123c.176 0 .293-.118.293-.294V.293c0-.176-.117-.293-.293-.293h-2.113c-.176 0-.294.117-.294.293V23.89c0 .176.118.294.294.294h2.113zM116 21.893c.176 0 .293-.117.293-.293v-2.348c0-.176-.117-.293-.293-.293h-.734c-.91 0-1.32-.323-1.32-1.321v-7.337c0-.117.058-.176.175-.176h1.879c.176 0 .293-.117.293-.293V7.865c0-.176-.117-.293-.293-.293h-1.879c-.117 0-.176-.059-.176-.176V3.522c0-.176-.117-.294-.293-.294h-2.7c-.176 0-.294.118-.294.294v3.874c0 .117-.058.176-.176.176h-.939c-.176 0-.293.117-.293.293v1.967c0 .176.117.293.293.293h.94c.117 0 .175.059.175.176v7.454c0 2.76 1.086 4.138 3.933 4.138h1.409zm9.508.147c2.612 0 4.608-.998 5.811-2.406.118-.147.118-.294-.03-.411l-1.73-1.526c-.147-.118-.294-.088-.44.058-.705.763-1.732 1.35-3.317 1.35-1.585 0-2.7-.763-3.17-2.142a3.11 3.11 0 0 1-.205-1.086c0-.117.059-.176.176-.176h8.716c.206 0 .323-.117.323-.293 0-2.29-.147-3.258-.47-4.256-.792-2.406-2.905-3.903-5.81-3.903-2.818 0-4.99 1.438-5.782 3.903-.293.91-.47 2.025-.47 3.493 0 1.467.206 2.553.5 3.463.792 2.465 2.905 3.932 5.898 3.932zm2.818-8.98c0 .117-.059.176-.176.176h-5.547c-.117 0-.176-.059-.176-.176 0-.5.059-.851.176-1.203.382-1.145 1.438-1.82 2.788-1.82 1.32 0 2.377.675 2.759 1.82.117.352.176.704.176 1.203zm17.726 8.657c.176 0 .293-.117.293-.293v-9.245c0-3.463-1.584-4.93-5.899-4.93-2.318 0-3.873.558-5.018 1.38-.117.087-.147.234-.059.38l1.086 1.938c.088.146.264.176.411.058.675-.528 1.644-.968 3.228-.968 2.377 0 3.14.734 3.14 2.348v.675c0 .117-.058.176-.176.176h-2.876c-3.492 0-5.664 1.409-5.664 4.49 0 2.964 2.172 4.314 4.755 4.314 1.995 0 3.316-.675 3.99-1.643h.03v1.027c0 .176.118.293.294.293h2.465zm-5.958-2.347c-1.584 0-2.436-.587-2.436-1.761 0-1.321.94-1.908 3.053-1.908h2.347c.118 0 .177.059.177.176v1.086c0 1.614-1.116 2.407-3.14 2.407zm9.509 4.52c-.088.175 0 .293.176.293h1.438c.206 0 .352-.088.499-.294 2.553-3.58 3.757-7.777 3.757-11.798 0-4.02-1.233-8.276-3.757-11.798-.147-.205-.293-.293-.499-.293h-1.438c-.176 0-.264.117-.176.293 1.76 3.522 2.73 7.778 2.73 11.798 0 4.021-.999 8.364-2.73 11.798zm15.026-1.85c2.113 0 3.786-.85 4.901-2.172.088-.146.118-.293-.03-.41l-1.848-1.615c-.147-.117-.294-.117-.411.03-.704.792-1.438 1.232-2.612 1.232-1.262 0-2.23-.616-2.641-1.82-.235-.703-.294-1.555-.294-2.64 0-1.086.059-1.908.294-2.612.41-1.233 1.38-1.85 2.641-1.85 1.174 0 1.908.44 2.612 1.233.117.147.264.176.41.059l1.85-1.614c.147-.118.117-.294.03-.411-1.116-1.35-2.789-2.201-4.902-2.201-2.847 0-5.018 1.38-5.84 3.903-.294.88-.44 1.996-.44 3.493 0 1.496.146 2.612.44 3.492.822 2.524 2.993 3.903 5.84 3.903zm18.783-.323c.176 0 .293-.117.293-.293v-9.245c0-3.463-1.585-4.93-5.899-4.93-2.318 0-3.874.558-5.018 1.38-.118.087-.147.234-.059.38l1.086 1.938c.088.146.264.176.41.058.676-.528 1.644-.968 3.23-.968 2.376 0 3.14.734 3.14 2.348v.675c0 .117-.06.176-.177.176h-2.876c-3.492 0-5.664 1.409-5.664 4.49 0 2.964 2.172 4.314 4.754 4.314 1.996 0 3.317-.675 3.992-1.643h.029v1.027c0 .176.117.293.293.293h2.466zm-5.958-2.347c-1.585 0-2.436-.587-2.436-1.761 0-1.321.94-1.908 3.052-1.908h2.348c.118 0 .176.059.176.176v1.086c0 1.614-1.115 2.407-3.14 2.407zm21.835 2.347c.176 0 .293-.117.293-.293V2.054c0-.176-.117-.293-.293-.293h-2.7c-.176 0-.294.117-.294.293v6.868h-.029c-.675-.969-1.849-1.673-3.756-1.673-2.407 0-4.168 1.144-4.902 3.404-.352 1.086-.499 2.084-.499 3.992 0 1.907.147 2.905.5 3.99.733 2.26 2.494 3.405 4.9 3.405 1.908 0 3.082-.704 3.757-1.673h.03v1.057c0 .176.117.293.293.293h2.7zm-5.928-2.612c-1.321 0-2.23-.645-2.612-1.82-.206-.645-.294-1.35-.294-2.64 0-1.292.088-1.996.294-2.642.381-1.174 1.29-1.82 2.612-1.82 1.35 0 2.26.646 2.64 1.82.206.646.294 1.35.294 2.642 0 1.29-.088 1.995-.293 2.64-.382 1.175-1.291 1.82-2.641 1.82zm16.14 2.935c2.613 0 4.608-.998 5.812-2.406.117-.147.117-.294-.03-.411l-1.731-1.526c-.147-.118-.294-.088-.44.058-.705.763-1.732 1.35-3.317 1.35-1.584 0-2.7-.763-3.17-2.142a3.11 3.11 0 0 1-.205-1.086c0-.117.06-.176.176-.176h8.717c.205 0 .323-.117.323-.293 0-2.29-.147-3.258-.47-4.256-.792-2.406-2.905-3.903-5.81-3.903-2.818 0-4.99 1.438-5.782 3.903-.294.91-.47 2.025-.47 3.493 0 1.467.206 2.553.499 3.463.792 2.465 2.905 3.932 5.899 3.932zm2.818-8.98c0 .117-.058.176-.176.176h-5.547c-.117 0-.176-.059-.176-.176 0-.5.06-.851.176-1.203.382-1.145 1.439-1.82 2.788-1.82 1.321 0 2.378.675 2.76 1.82.117.352.175.704.175 1.203zm27.147 8.657c.176 0 .293-.117.293-.293v-8.922c0-3.023-1.848-5.253-5.135-5.253-2.025 0-3.434.704-4.52 1.878h-.03c-.85-1.203-2.2-1.878-3.873-1.878-1.878 0-3.111.763-3.727 1.643h-.03V7.865c0-.176-.117-.293-.293-.293h-2.7c-.176 0-.294.117-.294.293v13.559c0 .176.118.293.294.293h2.7c.176 0 .293-.117.293-.293v-8.159c0-1.82.998-3.081 2.7-3.081 1.761 0 2.67 1.262 2.67 3.081v8.159c0 .176.118.293.294.293h2.7c.177 0 .294-.117.294-.293v-8.159c0-1.82.998-3.081 2.7-3.081 1.76 0 2.67 1.262 2.67 3.081v8.159c0 .176.118.293.294.293h2.7zM245.131 27c2.348 0 3.522-1.057 4.754-4.402l5.4-14.733c.06-.176-.058-.293-.234-.293h-2.788c-.176 0-.294.117-.352.293l-3.053 9.245h-.058l-3.2-9.245c-.058-.176-.175-.293-.351-.293h-2.906c-.176 0-.293.117-.235.293l5.166 13.324-.411 1.203c-.44 1.174-.998 1.673-2.113 1.673h-.529c-.176 0-.293.118-.293.294v2.348c0 .176.117.293.293.293h.91zm12.268-5.253c-.06.176.029.293.205.293h2.201c.205 0 .323-.088.382-.293l6.515-20.015c.058-.177-.03-.294-.206-.294h-2.2c-.206 0-.324.088-.382.294l-6.515 20.015z" fill="#FFF" fill-rule="evenodd" opacity=".791"/></svg>