<svg width="75" height="75" viewBox="0 0 75 75" xmlns="http://www.w3.org/2000/svg" xmlns:xlink="http://www.w3.org/1999/xlink"><title>Group 8</title><defs><path d="M0 10.432c0-1.103.896-1.996 2-1.996h19.231c1.105 0 2.001.887 2.001 1.996v32.643c0 1.103-.868 2.213-1.94 2.453l-7.677 1.066c-1.104.032-2.9.045-3.998 0l-7.676-1.066C.869 45.276 0 44.184 0 43.075V10.432z" id="a"/><mask id="b" x="0" y="0" width="23.232" height="38.187" fill="#fff"><use xlink:href="#a"/></mask></defs><g fill="none" fill-rule="evenodd"><circle cx="37.504" cy="37.504" r="37.504" fill="#FF5000"/><g transform="translate(24 14)"><use stroke="#FFF" mask="url(#b)" stroke-width="4" xlink:href="#a"/><path d="M3.065 5.227c-.306.161-.577.402-.726.67L.486 9.247C.212 9.74 0 10.572 0 11.125v2.507c0 .552.444 1.001.992 1.001h27.84a.997.997 0 0 0 .993-1v-2.508c0-.552-.386-1.224-.862-1.5l-7.099-4.107c-.483-.28-1.31-.498-1.865-.498h-4.496l-.029-1.978s4.35-1.71 7.422-1.71c.175-.268.14-1.048-.039-1.332C7.074 0 3.017 5.227 3.017 5.227h.048z" fill="#FFF"/></g></g></svg>