<svg width="76" height="76" viewBox="0 0 76 76" xmlns="http://www.w3.org/2000/svg"><title>Group 2</title><g fill="none" fill-rule="evenodd"><circle cx="38.054" cy="37.649" r="37.504" fill="#FF5000"/><g fill="#FFF"><path d="M48.875 29.396l-.253.203c.367.94.572 1.993.572 3.156 0 0 2.558 4.305 2.558 8.542 0 0 .955 1.313 1.238 2.196.406 1.268.467 2.16.467 5.064 0 0 1.706 2.942 1.706 5.552v.443l-.312.312c-.03.03-.41.482-.598.674a6.02 6.02 0 0 1-1.426 1.076c-2.293 1.277-6.38 1.98-13.226 1.98-5.69 0-10.183-.573-13.611-1.535-1.222-.342-2.226-.713-3.028-1.088-.506-.236-.843-.43-1.027-.56l-.395-.277-.053-.48a5.96 5.96 0 0 1-.022-.269c-.06-.977 0-2.079.278-3.159-3.455-.479-5.571-2.536-6.528-5.635-.475-1.539-.591-2.857-.591-4.721 0-3.416-1.76-8.328-3.624-8.328v-2.136c2.123 0 3.613 1.775 4.627 4.604.694 1.936 1.129 4.4 1.129 5.86 0 1.664.1 2.81.496 4.09.802 2.599 2.532 4.115 5.712 4.23.134-.132.222-.206.222-.206 0-2.045.048-3.015.287-4.213.336-1.68 1.845-3.474 1.845-3.474 0-.238-.003-.381-.017-1.008-.03-1.282-.027-2.015.036-2.865.17-2.305 1.7-4.417 1.7-4.417.331-1.986.507-2.839.845-3.808.494-1.412 1.208-2.41 2.289-2.95l.225-.114H45.892l.269.18c.124.082.307.224.529.428.298.274.594.596.875.968l.333-.267c.056-.4.237-.785.544-1.092.107-.107.28-.267.51-.461.372-.313.79-.625 1.248-.917.965-.615 1.986-1.068 3.06-1.283l-.231.061c2.76-.921 4.904 1.442 5.484 4.924.123.742.296.979.925 1.438l.23.166c.726.524 1.13.883 1.533 1.49.51.766.652 1.36.787 2.534.025.213.035.295.049.396.072.502.149.662.424.87 1.149.862 1.93 1.585 2.505 2.418.81 1.173 1.108 2.478.764 3.856a1.918 1.918 0 1 1-3.723-.932c.123-.493-.3-1.104-1.848-2.268-1.201-.902-1.718-1.976-1.92-3.4a16.411 16.411 0 0 1-.063-.5c-.067-.583-.107-.75-.168-.842-.077-.116-.207-.232-.582-.503a44.411 44.411 0 0 1-.247-.178c-1.375-1.004-2.142-2.052-2.451-3.913-.135-.809-.367-1.41-.614-1.746a.353.353 0 0 0-.102-.102c-.558.112-1.157.378-1.752.757a7.96 7.96 0 0 0-1.105.853 1.917 1.917 0 0 1-2.28.326zm-17.206-1.314c1.502-.025.736 0 1.715 0H44.703c.85 0 .588-.08.725.047.246.225.495.504.73.836.676.96 1.083 2.15 1.083 3.602v.374l.234.293c1.689 2.115 2.324 4.103 2.324 7.874v.324l.18.269c.589.886.944 1.58 1.16 2.256.313.977.366 1.743.366 4.412v.442l.312.313c.737.738 1.201 4.619 1.089 4.735a3.897 3.897 0 0 1-.935.7c-1.91 1.063-5.674 1.71-12.191 1.71-5.502 0-9.803-.547-13.036-1.454-1.11-.312-2.006-.642-2.702-.968-.393-.184-.264-1.528-.025-2.39.223-.806.582-1.428 1.08-1.827l.4-.321v-.513c0-3.782.331-5.442 1.82-6.933l.312-.312v-.443c0-.26-.003-.41-.018-1.056-.028-1.217-.025-1.898.03-2.66.131-1.767.549-2.968 1.293-3.565l.319-.255.067-.403c.573-3.447.866-4.685 2.35-5.087z"/><path d="M31.039 23.552a.853.853 0 0 0 0 1.708h15.135a.853.853 0 0 0 0-1.708H31.04zM38.485 23.05c2.7 0 4.889-2.192 4.889-4.896-4.19-.233-7.038-.175-9.777 0 .181 2.387 2.189 4.897 4.888 4.897z"/><path d="M37.008 21.417h2.558v3.417h-2.558zM51.93 53.38c-6.148 2.135-14.932 2.99-26.79 0-.439-2.136 1.318-4.271 1.318-4.271s-.51-6.338 2.196-6.834c-.44-2.135 0-3.843 0-3.843s1.317.854 5.709.854c1.318 0 7.905-2.563 14.054-1.281v4.27s1.757.428 1.757 6.407c1.317 1.708 1.317 2.99 1.756 4.698z"/></g></g></svg>