<svg width="44" height="34" viewBox="0 0 44 34" xmlns="http://www.w3.org/2000/svg"><title>tea-icon</title><g stroke="#000" fill="#2B2B2B" fill-rule="evenodd"><path d="M4.281 12.102c0-5.41 4.407-9.796 9.844-9.796a9.837 9.837 0 0 1 7.383 3.317c.24.27.655.296.926.057a.65.65 0 0 0 .058-.922A11.152 11.152 0 0 0 14.125 1C7.964 1 2.969 5.97 2.969 12.102c0 .482.03.961.092 1.434.046.358 1.348.19 1.302-.167a9.848 9.848 0 0 1-.082-1.267z"/><path d="M41.031 12.102C41.031 5.971 36.036 1 29.875 1c-6.161 0-11.156 4.97-11.156 11.102 0 .342.015.683.046 1.02a.655.655 0 0 0 1.307-.118 9.88 9.88 0 0 1-.04-.902c0-5.41 4.406-9.796 9.843-9.796s9.844 4.386 9.844 9.796c0 .415-.026.828-.078 1.235a.656.656 0 1 0 1.302.163c.059-.462.088-.928.088-1.398z"/><path d="M22 12.102c-3.385 0-6.456 1.574-8.06 4.07a.651.651 0 0 0 .198.903.658.658 0 0 0 .907-.199c1.356-2.11 4.006-3.468 6.955-3.468 2.945 0 5.59 1.354 6.949 3.459a.658.658 0 0 0 .907.196.651.651 0 0 0 .197-.902c-1.607-2.49-4.673-4.059-8.053-4.059zM42.95 13.542a.654.654 0 0 0-.593-.695c-.656-.061-.716.606-.716.606-.7 10.239-9.273 18.24-19.641 18.24a.655.655 0 0 0-.656.654c0 .36.294.653.656.653 11.06 0 20.204-8.536 20.95-19.458z"/><path d="M42.95 13.542a.654.654 0 0 0-.593-.695 21.356 21.356 0 0 0-1.982-.092c-4.86 0-9.469 1.65-13.174 4.623a.65.65 0 0 0-.099.918c.228.28.641.325.923.098a19.659 19.659 0 0 1 12.35-4.333c.624 0 1.244.03 1.86.086l.716-.605zM1.765 14.147a20.037 20.037 0 0 1 1.86-.086c4.558 0 8.876 1.545 12.35 4.333a.658.658 0 0 0 .923-.098.65.65 0 0 0-.1-.918 20.975 20.975 0 0 0-13.173-4.623c-.665 0-1.326.03-1.982.092a.654.654 0 0 0-.594.695l.716.605z"/><path d="M2.359 13.453s-.06-.667-.716-.606a.654.654 0 0 0-.594.695C1.796 24.464 10.941 33 22 33a.655.655 0 0 0 .656-.653.655.655 0 0 0-.656-.653c-10.368 0-18.941-8.002-19.641-18.241z"/><path d="M33.156 24.51c0-4.736-5.029-8.49-11.156-8.49-6.127 0-11.156 3.754-11.156 8.49C10.844 29.246 15.873 33 22 33c6.127 0 11.156-3.754 11.156-8.49zm-21 0c0-3.92 4.373-7.183 9.844-7.183 5.47 0 9.844 3.263 9.844 7.183S27.47 31.694 22 31.694c-5.47 0-9.844-3.264-9.844-7.184z"/></g></svg>