<svg width="35" height="36" viewBox="0 0 35 36" xmlns="http://www.w3.org/2000/svg"><title>cofee-icon</title><g fill="#F2F2F2" fill-rule="evenodd"><path d="M11.3 15.6c1.75-.85 2.9-2.15 3.45-3.75.65-1.9.35-4.25-.85-6.6C11.65.75 7.85-.8 4 1.1 2.3 1.95 1.1 3.25.55 4.85c-.65 1.9-.35 4.25.85 6.6 1.6 3.2 4.05 4.95 6.7 4.95 1.05 0 2.15-.25 3.2-.8zm-8.55-4.85c-1-2-1.25-3.9-.75-5.45.4-1.25 1.3-2.2 2.7-2.9.95-.45 1.8-.65 2.55-.65 2.9 0 4.65 2.75 5.35 4.15 1 2 1.25 3.95.75 5.45-.4 1.25-1.3 2.2-2.7 2.9-4.55 2.25-7.2-2.1-7.9-3.5z"/><path d="M9.3 13.3c.15.1.3.2.5.2s.4-.1.55-.25c.25-.3.25-.8-.1-1.05 0 0-1.65-1.45-1.75-3.75-.15-3-2.55-4.9-2.65-4.95-.35-.25-.8-.2-1.05.15s-.2.8.15 1.05c0 0 1.95 1.55 2.05 3.85.15 2.85 2.2 4.65 2.3 4.75zM34.3 10.55c-1.4-4-5.35-5.55-10-3.9-2.5.85-4.35 2.35-5.25 4.15-.75 1.55-.8 3.25-.15 5.1 1.05 2.95 3.35 4.55 6.4 4.55 1.1 0 2.35-.2 3.6-.65 2.55-.9 4.35-2.35 5.25-4.15.75-1.55.8-3.25.15-5.1zM32.8 15c-.7 1.45-2.25 2.65-4.4 3.4-1.45.5-6.4 1.8-8.1-3-.5-1.45-.5-2.8.1-3.95.7-1.45 2.25-2.65 4.4-3.4.6-.2 1.8-.55 3.1-.55 1.9 0 4 .7 5 3.55.5 1.45.45 2.8-.1 3.95z"/><path d="M30.65 11s-1.8 1.75-4.1 1.55c-2.95-.25-5 1.6-5.1 1.65-.3.3-.35.75-.05 1.05.15.15.35.25.55.25.2 0 .35-.05.5-.2 0 0 1.65-1.45 3.95-1.25 3 .25 5.2-1.9 5.3-2 .3-.3.3-.75 0-1.05-.3-.3-.75-.3-1.05 0zM13.9 19.75c-4.15-1-7.55 1.45-8.75 6.25-.6 2.55-.4 4.9.65 6.65.9 1.45 2.3 2.45 4.25 2.9.65.15 1.25.25 1.85.25 3.3 0 5.85-2.35 6.9-6.5.65-2.6.4-4.9-.65-6.65-.9-1.5-2.35-2.45-4.25-2.9zm3.4 9.15c-.35 1.5-1.95 6.35-6.9 5.15-1.5-.35-2.6-1.1-3.3-2.25-.85-1.4-1-3.35-.5-5.5.35-1.3 1.65-5.3 5.45-5.3.45 0 .95.05 1.5.2 1.5.35 2.65 1.1 3.3 2.25.8 1.35 1 3.3.45 5.45z"/><path d="M12.85 22.15c-.4.1-.65.5-.6.9 0 0 .5 2.45-.9 4.25-1.8 2.35-1.35 5.05-1.35 5.15.05.35.4.6.75.6h.1c.4-.05.7-.45.6-.85 0 0-.35-2.2 1.1-4 1.85-2.35 1.2-5.35 1.2-5.5-.1-.4-.5-.65-.9-.55z"/></g></svg>