<?xml version="1.0" encoding="UTF-8"?>
<svg width="157px" height="35px" viewBox="0 0 157 35" version="1.1" xmlns="http://www.w3.org/2000/svg" xmlns:xlink="http://www.w3.org/1999/xlink">
    <!-- Generator: Sketch 42 (36781) - http://www.bohemiancoding.com/sketch -->
    <title>Group 2</title>
    <desc>Created with Sketch.</desc>
    <defs></defs>
    <g id="Page-1" stroke="none" stroke-width="1" fill="none" fill-rule="evenodd">
        <g id="Group-2" fill="#F0F0F0">
            <path d="M3.79456193,3.83561644 L3.79456193,31.1643836 L33.6767372,31.1643836 L33.6767372,3.83561644 L3.79456193,3.83561644 Z M0,0 L37.4712991,0 L37.4712991,35 L0,35 L0,0 Z" id="Rectangle-2" fill-rule="nonzero"></path>
            <polygon id="Line" fill-rule="nonzero" points="41.9773414 35 59.0613374 35 59.0613374 31.1643836 41.9773414 31.1643836"></polygon>
            <path d="M51.1279275,26.270137 C49.4659011,26.270137 48.0372628,25.878908 46.8419698,25.0964384 C45.6466768,24.3139687 44.8099843,23.174802 44.3318671,21.6789041 C43.9903548,20.6432825 43.8196012,19.2739811 43.8196012,17.5709589 C43.8196012,15.8679367 43.9903548,14.4986353 44.3318671,13.4630137 C44.8099843,11.9671158 45.6466768,10.8279491 46.8419698,10.0454795 C48.0372628,9.26300979 49.4659011,8.87178082 51.1279275,8.87178082 C52.3573717,8.87178082 53.4501946,9.10191551 54.406429,9.56219178 C55.3626634,10.0224681 56.170897,10.6553384 56.8311541,11.4608219 C56.967759,11.6449324 56.9563754,11.8060267 56.797003,11.9441096 L54.6454864,13.8427397 C54.4633465,13.9808226 54.3039765,13.9578091 54.1673716,13.7736986 C53.7575569,13.3134224 53.3192893,12.9567136 52.8525559,12.7035616 C52.3858224,12.4504097 51.8109521,12.3238356 51.1279275,12.3238356 C50.399368,12.3238356 49.7675797,12.50219 49.2325438,12.8589041 C48.6975079,13.2156182 48.3047747,13.7621881 48.0543323,14.4986301 C47.9177274,14.9128788 47.8266588,15.3673948 47.7811239,15.8621918 C47.7355889,16.3569888 47.7128218,16.9265721 47.7128218,17.5709589 C47.7128218,18.2153457 47.7355889,18.7906824 47.7811239,19.2969863 C47.8266588,19.8032902 47.9177274,20.2635596 48.0543323,20.6778082 C48.3047747,21.3912364 48.6975079,21.9262996 49.2325438,22.2830137 C49.7675797,22.6397278 50.399368,22.8180822 51.1279275,22.8180822 C51.8109521,22.8180822 52.3858224,22.6915081 52.8525559,22.4383562 C53.3192893,22.1852042 53.7575569,21.8284955 54.1673716,21.3682192 C54.3039765,21.2071225 54.4633465,21.1956157 54.6454864,21.3336986 L56.797003,23.2323288 C56.9336079,23.3473978 56.9449915,23.5084921 56.8311541,23.7156164 C56.170897,24.4980861 55.3626634,25.1194498 54.406429,25.579726 C53.4501946,26.0400023 52.3573717,26.270137 51.1279275,26.270137 Z M66.4617523,8.87178082 C68.9661757,8.87178082 70.7363211,9.33205019 71.7722417,10.2526027 C72.8081623,11.1731553 73.3261148,12.6460173 73.3261148,14.6712329 L73.3261148,25.5452055 C73.3261148,25.7753436 73.2122791,25.890411 72.9846042,25.890411 L70.1159154,25.890411 C69.8882406,25.890411 69.7744048,25.7753436 69.7744048,25.5452055 L69.7744048,24.3369863 L69.7402538,24.3369863 C69.3532065,24.9123316 68.7726444,25.3783544 67.9985498,25.7350685 C67.2244553,26.0917826 66.2568517,26.270137 65.09571,26.270137 C64.344383,26.270137 63.6329097,26.1665764 62.9612689,25.9594521 C62.2896281,25.7523277 61.7033741,25.4416459 61.2024894,25.0273973 C60.7016047,24.6131486 60.3031797,24.0895922 60.0072024,23.4567123 C59.7112251,22.8238325 59.5632387,22.0701414 59.5632387,21.1956164 C59.5632387,19.3775252 60.1494926,18.042744 61.3220181,17.1912329 C62.4945436,16.3397218 64.1053191,15.9139726 66.1543927,15.9139726 L67.5545861,15.9139726 C67.782261,15.9139726 67.8960967,16.0290399 67.8960967,16.2591781 L67.8960967,18.5030137 C67.8960967,18.710138 67.782261,18.8136986 67.5545861,18.8136986 L66.7691118,18.8136986 C65.5396676,18.8136986 64.6403654,18.992053 64.0711782,19.3487671 C63.5019911,19.7054812 63.2174018,20.2750646 63.2174018,21.0575342 C63.2174018,22.4383631 64.1622383,23.1287671 66.0519396,23.1287671 C67.2358488,23.1287671 68.1408428,22.8986324 68.7669486,22.4383562 C69.3930545,21.9780799 69.7061027,21.2646624 69.7061027,20.2980822 L69.7061027,14.9128767 C69.7061027,13.9462965 69.4442806,13.2443857 68.9206284,12.8071233 C68.3969762,12.3698608 67.4407562,12.1512329 66.0519396,12.1512329 C65.1184727,12.1512329 64.3557734,12.2605469 63.7638187,12.4791781 C63.1718641,12.6978093 62.6823705,12.9682176 62.2953233,13.290411 C62.0904159,13.4515077 61.9310459,13.4284942 61.8172085,13.2213699 L60.5536193,10.9430137 C60.4397819,10.7589032 60.4625491,10.6093156 60.6219215,10.4942466 C61.2821785,10.0109565 62.0790286,9.61972752 63.0124955,9.32054795 C63.9459624,9.02136837 65.0957031,8.87178082 66.4617523,8.87178082 Z M87.9769184,2.76164384 C87.9769184,2.5315057 88.0907541,2.41643836 88.318429,2.41643836 L91.4603263,2.41643836 C91.6880011,2.41643836 91.8018369,2.5315057 91.8018369,2.76164384 L91.8018369,25.5452055 C91.8018369,25.7753436 91.6880011,25.890411 91.4603263,25.890411 L88.318429,25.890411 C88.0907541,25.890411 87.9769184,25.7753436 87.9769184,25.5452055 L87.9769184,24.3024658 L87.9427674,24.3024658 C87.5557201,24.8778111 87.0093087,25.3495872 86.3035166,25.7178082 C85.5977246,26.0860292 84.6870388,26.270137 83.571432,26.270137 C82.1598479,26.270137 80.9645729,25.9364417 79.985571,25.2690411 C79.0065691,24.6016405 78.3007877,23.6005546 77.8682054,22.2657534 C77.6632981,21.6213666 77.5153116,20.9597294 77.4242417,20.2808219 C77.3331718,19.6019144 77.2876375,18.6986358 77.2876375,17.5709589 C77.2876375,16.443282 77.3331718,15.5400034 77.4242417,14.8610959 C77.5153116,14.1821884 77.6632981,13.5205512 77.8682054,12.8761644 C78.3007877,11.5413632 79.0065691,10.5402773 79.985571,9.87287671 C80.9645729,9.20547612 82.1598479,8.87178082 83.571432,8.87178082 L85.8595529,8.87178082 C86.0189253,8.87178082 86.1213774,8.97534143 86.1669124,9.18246575 L86.1669124,12.0476712 C86.1213774,12.2317817 86.0189253,12.3238356 85.8595529,12.3238356 L84.5618127,12.3238356 C82.9908562,12.3238356 81.9777183,13.0372531 81.5223686,14.4641096 C81.4085312,14.8553444 81.3231544,15.2810936 81.2662356,15.7413699 C81.2093169,16.2016461 81.180858,16.8115031 81.180858,17.5709589 C81.180858,18.3304148 81.2093169,18.9402717 81.2662356,19.4005479 C81.3231544,19.8608242 81.4085312,20.2865734 81.5223686,20.6778082 C81.9777183,22.1046647 82.9908562,22.8180822 84.5618127,22.8180822 C86.1555367,22.8180822 87.1800581,22.1046647 87.6354079,20.6778082 C87.7492453,20.2865734 87.8346221,19.8608242 87.8915408,19.4005479 C87.9484595,18.9402717 87.9769184,18.3304148 87.9769184,17.5709589 L87.9769184,2.76164384 Z M106.418489,15.9139726 C106.555094,15.9139726 106.623396,15.8449322 106.623396,15.7068493 C106.623396,15.1775316 106.555094,14.7057555 106.418489,14.2915068 C106.190815,13.6241063 105.79239,13.1005498 105.223202,12.7208219 C104.654015,12.341094 103.982385,12.1512329 103.20829,12.1512329 C102.525265,12.1512329 101.921936,12.2950671 101.398284,12.5827397 C100.874632,12.8704124 100.464823,13.2789015 100.168846,13.8082192 C100.123311,13.9002744 100.05501,14.0613687 99.9639396,14.2915068 C99.8273347,14.7057555 99.7590332,15.1775316 99.7590332,15.7068493 L99.7590332,19.0208219 C99.7590332,19.2049324 99.7874922,19.4293137 99.8444109,19.6939726 C99.9013296,19.9586315 99.9525557,20.1599993 99.9980906,20.2980822 C100.567278,21.9780906 101.796704,22.8180822 103.686405,22.8180822 C104.619872,22.8180822 105.393955,22.6684946 106.008677,22.3693151 C106.623399,22.0701355 107.13566,21.6904133 107.545474,21.230137 C107.727614,21.0460265 107.898368,21.023013 108.05774,21.1610959 L110.072653,22.9561644 C110.232025,23.0942473 110.243409,23.2553415 110.106804,23.4394521 C109.401012,24.2679493 108.478942,24.9468467 107.340568,25.4761644 C106.202194,26.0054821 104.870316,26.270137 103.344894,26.270137 C101.591798,26.270137 100.123317,25.8616479 98.9394079,25.0446575 C97.7554986,24.2276671 96.9358814,23.0942538 96.4805317,21.6443836 C96.2983918,21.1150658 96.1560972,20.522469 96.0536435,19.8665753 C95.9511898,19.2106817 95.8999637,18.4454838 95.8999637,17.5709589 C95.8999637,16.696434 95.945498,15.9254828 96.036568,15.2580822 C96.1276379,14.5906816 96.2642408,13.9923314 96.4463807,13.4630137 C96.9017304,12.0131434 97.7270393,10.8854835 98.9223323,10.08 C100.117625,9.27451652 101.53488,8.87178082 103.174139,8.87178082 C104.8817,8.87178082 106.321722,9.28026989 107.494248,10.0972603 C108.666773,10.9142507 109.480699,12.0361572 109.936048,13.4630137 C110.027118,13.7621933 110.106803,14.0613684 110.175106,14.3605479 C110.243408,14.6597275 110.300326,15.0049296 110.345861,15.3961644 C110.391396,15.7873992 110.425547,16.2304085 110.448314,16.7252055 C110.471082,17.2200025 110.482465,17.8010926 110.482465,18.4684932 C110.482465,18.6986313 110.357246,18.8136986 110.106804,18.8136986 L101.876399,18.8136986 C101.648724,18.8136986 101.534888,18.710138 101.534888,18.5030137 L101.534888,16.2591781 C101.534888,16.0290399 101.648724,15.9139726 101.876399,15.9139726 L106.418489,15.9139726 Z M135.071227,25.890411 C134.843552,25.890411 134.729716,25.7753436 134.729716,25.5452055 L134.729716,15.9484932 C134.729716,14.8668439 134.467894,13.9923321 133.944242,13.3249315 C133.42059,12.6575309 132.646507,12.3238356 131.62197,12.3238356 C130.6202,12.3238356 129.846118,12.6575309 129.299698,13.3249315 C128.753278,13.9923321 128.480073,14.8668439 128.480073,15.9484932 L128.480073,25.5452055 C128.480073,25.7753436 128.366237,25.890411 128.138562,25.890411 L124.996665,25.890411 C124.76899,25.890411 124.655154,25.7753436 124.655154,25.5452055 L124.655154,15.9484932 C124.655154,14.8668439 124.393332,13.9923321 123.86968,13.3249315 C123.346028,12.6575309 122.571945,12.3238356 121.547408,12.3238356 C120.545638,12.3238356 119.771556,12.6575309 119.225136,13.3249315 C118.678716,13.9923321 118.405511,14.8668439 118.405511,15.9484932 L118.405511,25.5452055 C118.405511,25.7753436 118.291675,25.890411 118.064,25.890411 L114.922103,25.890411 C114.694428,25.890411 114.580592,25.7753436 114.580592,25.5452055 L114.580592,9.59671233 C114.580592,9.36657419 114.694428,9.25150685 114.922103,9.25150685 L118.064,9.25150685 C118.291675,9.25150685 118.405511,9.36657419 118.405511,9.59671233 L118.405511,10.8049315 L118.439662,10.8049315 C118.803941,10.2756138 119.344661,9.82109779 120.061837,9.44136986 C120.779013,9.06164194 121.684007,8.87178082 122.776846,8.87178082 C123.755848,8.87178082 124.626691,9.06164194 125.389402,9.44136986 C126.152113,9.82109779 126.783901,10.3676677 127.284785,11.0810959 L127.318937,11.0810959 C127.956426,10.3906815 128.696358,9.84986497 129.538755,9.45863014 C130.381152,9.0673953 131.39429,8.87178082 132.578199,8.87178082 C133.534434,8.87178082 134.38251,9.02712173 135.122453,9.33780822 C135.862396,9.6484947 136.488493,10.0799972 137.000761,10.6323288 C137.51303,11.1846603 137.900071,11.8347908 138.161897,12.5827397 C138.423723,13.3306887 138.554634,14.1534202 138.554634,15.0509589 L138.554634,25.5452055 C138.554634,25.7753436 138.440799,25.890411 138.213124,25.890411 L135.071227,25.890411 Z M143.950502,32.1041096 C143.722827,32.1041096 143.608991,31.9890422 143.608991,31.7589041 L143.608991,28.9972603 C143.608991,28.7671221 143.722827,28.6520548 143.950502,28.6520548 L144.565221,28.6520548 C145.225478,28.6520548 145.737738,28.4967139 146.102018,28.1860274 C146.466298,27.8753409 146.773654,27.374798 147.024097,26.6843836 L147.502211,25.2690411 L141.491625,9.59671233 C141.423323,9.36657419 141.514391,9.25150685 141.764834,9.25150685 L145.145789,9.25150685 C145.350696,9.25150685 145.487299,9.36657419 145.555601,9.59671233 L149.278066,20.4706849 L149.346369,20.4706849 L152.898079,9.59671233 C152.966381,9.36657419 153.102984,9.25150685 153.307891,9.25150685 L156.552242,9.25150685 C156.802684,9.25150685 156.893753,9.36657419 156.82545,9.59671233 L150.541656,26.9260274 C150.177376,27.9156214 149.813102,28.7383529 149.448822,29.3942466 C149.084542,30.0501403 148.686117,30.57945 148.253535,30.9821918 C147.820953,31.3849335 147.342842,31.6726019 146.81919,31.8452055 C146.295538,32.0178091 145.692209,32.1041096 145.009184,32.1041096 L143.950502,32.1041096 Z" id="cademy"></path>
            <g id="noun_97349_cc" transform="translate(9.012085, 9.109589)" fill-rule="nonzero">
                <g id="Group">
                    <path d="M18.8005737,6.04631192 C18.8954698,5.04103548 18.9346333,4.15970141 18.9346333,4.11268879 C18.9346333,1.91805401 14.6519574,0.138900935 9.36579289,0.138900935 C4.51193284,0.138900935 0.252453744,1.83166068 0.0129540704,3.69110156 C-0.00964023843,3.86724626 0.104536335,8.86615354 0.370847922,9.79541606 C0.79772973,11.2891354 1.8075447,13.3815024 3.16320323,14.4753091 C4.49144733,15.5471359 5.93296424,16.4654084 8.97536323,16.5170002 C11.5984119,16.5615706 13.5635142,16.0334418 14.9167627,14.8773586 C15.6066422,14.2909219 16.2212074,13.4828543 16.7902828,12.581372 C17.89168,12.6772289 18.8560051,12.6344901 19.9221552,12.3032648 C22.903399,11.3755287 23.3025651,6.56314551 18.8005737,6.04631192 Z M9.47394431,7.07478939 C4.8662116,7.07478939 1.13272802,5.74897233 1.13272802,4.11238351 C1.13272802,2.47579469 4.8662116,1.1490618 9.47394431,1.1490618 C14.0801707,1.1490618 17.8166669,2.47579469 17.8166669,4.11238351 C17.8169682,5.74897233 14.0801707,7.07478939 9.47394431,7.07478939 Z M19.9516785,10.5769246 C19.3991723,11.0839894 18.4444874,11.2064053 17.5684308,11.1633613 C17.7482815,10.8190091 17.8829435,10.4743516 17.963078,10.2606579 C18.4646717,8.91988226 18.5167892,8.44273465 18.6574764,7.34129602 C19.0527262,7.39014031 19.4256829,7.51347213 19.6675927,7.65512055 C21.0205399,8.44639797 20.7427805,9.85158699 19.9516785,10.5769246 Z" id="Shape"></path>
                </g>
            </g>
        </g>
    </g>
</svg>