<?xml version="1.0" encoding="UTF-8"?>
<svg width="267px" height="27px" viewBox="0 0 267 27" version="1.1" xmlns="http://www.w3.org/2000/svg" xmlns:xlink="http://www.w3.org/1999/xlink">
    <!-- Generator: Sketch 41.2 (35397) - http://www.bohemiancoding.com/sketch -->
    <title>/(coffee|tea)cademy/</title>
    <desc>Created with Sketch.</desc>
    <defs></defs>
    <g id="Page-1" stroke="none" stroke-width="1" fill="none" fill-rule="evenodd" opacity="0.79127038">
        <g id="Landing" transform="translate(-33.000000, -36.000000)" fill="#FFFFFF">
            <path d="M33.0181089,57.7467391 C32.9594133,57.9228261 33.0474567,58.0402174 33.2235437,58.0402174 L35.4246307,58.0402174 C35.6300654,58.0402174 35.7474567,57.9521739 35.8061524,57.7467391 L42.3213698,37.7315217 C42.3800654,37.5554348 42.292022,37.4380435 42.115935,37.4380435 L39.9148481,37.4380435 C39.7094133,37.4380435 39.592022,37.526087 39.5333263,37.7315217 L33.0181089,57.7467391 Z M49.1594133,59.8891304 C49.3061524,60.0945652 49.4528915,60.1826087 49.6583263,60.1826087 L51.0963698,60.1826087 C51.2724567,60.1826087 51.3605002,60.0652174 51.2724567,59.8891304 C49.540935,56.4554348 48.5431089,52.1119565 48.5431089,48.0913043 C48.5431089,44.0706522 49.5115872,39.8152174 51.2724567,36.2934783 C51.3605002,36.1173913 51.2724567,36 51.0963698,36 L49.6583263,36 C49.4528915,36 49.3061524,36.0880435 49.1594133,36.2934783 C46.6355002,39.8152174 45.4028915,44.0706522 45.4028915,48.0913043 C45.4028915,52.1119565 46.6061524,56.3086957 49.1594133,59.8891304 Z M60.1648481,58.0402174 C62.2778915,58.0402174 63.9507176,57.1891304 65.065935,55.8684783 C65.1539785,55.7217391 65.1833263,55.575 65.0365872,55.4576087 L63.1876741,53.8434783 C63.040935,53.726087 62.8941959,53.726087 62.7768046,53.8728261 C62.0724567,54.6652174 61.3387611,55.1054348 60.1648481,55.1054348 C58.9028915,55.1054348 57.9344133,54.4891304 57.5235437,53.2858696 C57.2887611,52.5815217 57.2300654,51.7304348 57.2300654,50.6445652 C57.2300654,49.5586957 57.2887611,48.7369565 57.5235437,48.0326087 C57.9344133,46.8 58.9028915,46.1836957 60.1648481,46.1836957 C61.3387611,46.1836957 62.0724567,46.623913 62.7768046,47.4163043 C62.8941959,47.5630435 63.040935,47.5923913 63.1876741,47.475 L65.0365872,45.8608696 C65.1833263,45.7434783 65.1539785,45.5673913 65.065935,45.45 C63.9507176,44.1 62.2778915,43.248913 60.1648481,43.248913 C57.3181089,43.248913 55.1463698,44.6282609 54.3246307,47.1521739 C54.0311524,48.0326087 53.8844133,49.1478261 53.8844133,50.6445652 C53.8844133,52.1413043 54.0311524,53.2565217 54.3246307,54.1369565 C55.1463698,56.6608696 57.3181089,58.0402174 60.1648481,58.0402174 Z M74.1344133,58.0402174 C76.9811524,58.0402174 79.1528915,56.6021739 79.9452828,54.1369565 C80.2681089,53.1391304 80.4148481,52.2 80.4148481,50.6445652 C80.4148481,49.0891304 80.2681089,48.15 79.9452828,47.1521739 C79.1528915,44.6869565 76.9811524,43.248913 74.1344133,43.248913 C71.2583263,43.248913 69.0865872,44.6869565 68.2941959,47.1521739 C67.9713698,48.15 67.8246307,49.0891304 67.8246307,50.6445652 C67.8246307,52.2 67.9713698,53.1391304 68.2941959,54.1369565 C69.0865872,56.6021739 71.2583263,58.0402174 74.1344133,58.0402174 Z M74.1344133,55.1054348 C72.8137611,55.1054348 71.8746307,54.4304348 71.4637611,53.2565217 C71.2289785,52.5228261 71.1702828,51.8478261 71.1702828,50.6445652 C71.1702828,49.4413043 71.2289785,48.7956522 71.4637611,48.0326087 C71.8746307,46.8586957 72.8137611,46.1836957 74.1344133,46.1836957 C75.4550654,46.1836957 76.3648481,46.8586957 76.7757176,48.0326087 C77.0105002,48.7956522 77.0691959,49.4413043 77.0691959,50.6445652 C77.0691959,51.8478261 77.0105002,52.5228261 76.7757176,53.2565217 C76.3648481,54.4304348 75.4550654,55.1054348 74.1344133,55.1054348 Z M87.3702828,57.7173913 C87.5463698,57.7173913 87.6637611,57.6 87.6637611,57.423913 L87.6637611,46.301087 C87.6637611,46.1836957 87.7224567,46.125 87.8398481,46.125 L90.3637611,46.125 C90.5398481,46.125 90.6572394,46.0076087 90.6572394,45.8315217 L90.6572394,43.8652174 C90.6572394,43.6891304 90.5398481,43.5717391 90.3637611,43.5717391 L87.8398481,43.5717391 C87.7224567,43.5717391 87.6637611,43.5130435 87.6637611,43.3956522 L87.6637611,42.4271739 C87.6637611,41.0478261 87.9865872,40.6956522 89.4539785,40.6956522 L90.3637611,40.6956522 C90.5398481,40.6956522 90.6572394,40.5782609 90.6572394,40.4021739 L90.6572394,38.0543478 C90.6572394,37.8782609 90.5398481,37.7608696 90.3637611,37.7608696 L89.0724567,37.7608696 C85.990935,37.7608696 84.3768046,39.198913 84.3768046,42.4858696 L84.3768046,43.3956522 C84.3768046,43.5130435 84.3181089,43.5717391 84.2007176,43.5717391 L83.2615872,43.5717391 C83.0855002,43.5717391 82.9681089,43.6891304 82.9681089,43.8652174 L82.9681089,45.8315217 C82.9681089,46.0076087 83.0855002,46.125 83.2615872,46.125 L84.2007176,46.125 C84.3181089,46.125 84.3768046,46.1836957 84.3768046,46.301087 L84.3768046,57.423913 C84.3768046,57.6 84.4941959,57.7173913 84.6702828,57.7173913 L87.3702828,57.7173913 Z M96.9963698,57.7173913 C97.1724567,57.7173913 97.2898481,57.6 97.2898481,57.423913 L97.2898481,46.301087 C97.2898481,46.1836957 97.3485437,46.125 97.465935,46.125 L99.9898481,46.125 C100.165935,46.125 100.283326,46.0076087 100.283326,45.8315217 L100.283326,43.8652174 C100.283326,43.6891304 100.165935,43.5717391 99.9898481,43.5717391 L97.465935,43.5717391 C97.3485437,43.5717391 97.2898481,43.5130435 97.2898481,43.3956522 L97.2898481,42.4271739 C97.2898481,41.0478261 97.6126741,40.6956522 99.0800654,40.6956522 L99.9898481,40.6956522 C100.165935,40.6956522 100.283326,40.5782609 100.283326,40.4021739 L100.283326,38.0543478 C100.283326,37.8782609 100.165935,37.7608696 99.9898481,37.7608696 L98.6985437,37.7608696 C95.617022,37.7608696 94.0028915,39.198913 94.0028915,42.4858696 L94.0028915,43.3956522 C94.0028915,43.5130435 93.9441959,43.5717391 93.8268046,43.5717391 L92.8876741,43.5717391 C92.7115872,43.5717391 92.5941959,43.6891304 92.5941959,43.8652174 L92.5941959,45.8315217 C92.5941959,46.0076087 92.7115872,46.125 92.8876741,46.125 L93.8268046,46.125 C93.9441959,46.125 94.0028915,46.1836957 94.0028915,46.301087 L94.0028915,57.423913 C94.0028915,57.6 94.1202828,57.7173913 94.2963698,57.7173913 L96.9963698,57.7173913 Z M108.823544,58.0402174 C111.4355,58.0402174 113.431152,57.0423913 114.634413,55.6336957 C114.751805,55.4869565 114.751805,55.3402174 114.605065,55.2228261 L112.873544,53.6967391 C112.726805,53.5793478 112.580065,53.6086957 112.433326,53.7554348 C111.728978,54.5184783 110.701805,55.1054348 109.117022,55.1054348 C107.532239,55.1054348 106.417022,54.3423913 105.947457,52.9630435 C105.830065,52.6402174 105.742022,52.2880435 105.742022,51.8771739 C105.742022,51.7597826 105.800718,51.701087 105.918109,51.701087 L114.634413,51.701087 C114.839848,51.701087 114.957239,51.5836957 114.957239,51.4076087 C114.957239,49.1184783 114.8105,48.15 114.487674,47.1521739 C113.695283,44.7456522 111.582239,43.248913 108.676805,43.248913 C105.859413,43.248913 103.687674,44.6869565 102.895283,47.1521739 C102.601805,48.0619565 102.425718,49.1771739 102.425718,50.6445652 C102.425718,52.1119565 102.631152,53.1978261 102.924631,54.1076087 C103.717022,56.5728261 105.830065,58.0402174 108.823544,58.0402174 Z M111.640935,49.0597826 C111.640935,49.1771739 111.582239,49.2358696 111.464848,49.2358696 L105.918109,49.2358696 C105.800718,49.2358696 105.742022,49.1771739 105.742022,49.0597826 C105.742022,48.5608696 105.800718,48.2086957 105.918109,47.8565217 C106.299631,46.7119565 107.356152,46.0369565 108.706152,46.0369565 C110.026805,46.0369565 111.083326,46.7119565 111.464848,47.8565217 C111.582239,48.2086957 111.640935,48.5608696 111.640935,49.0597826 Z M124.113761,58.0402174 C126.725718,58.0402174 128.72137,57.0423913 129.924631,55.6336957 C130.042022,55.4869565 130.042022,55.3402174 129.895283,55.2228261 L128.163761,53.6967391 C128.017022,53.5793478 127.870283,53.6086957 127.723544,53.7554348 C127.019196,54.5184783 125.992022,55.1054348 124.407239,55.1054348 C122.822457,55.1054348 121.707239,54.3423913 121.237674,52.9630435 C121.120283,52.6402174 121.032239,52.2880435 121.032239,51.8771739 C121.032239,51.7597826 121.090935,51.701087 121.208326,51.701087 L129.924631,51.701087 C130.130065,51.701087 130.247457,51.5836957 130.247457,51.4076087 C130.247457,49.1184783 130.100718,48.15 129.777892,47.1521739 C128.9855,44.7456522 126.872457,43.248913 123.967022,43.248913 C121.149631,43.248913 118.977892,44.6869565 118.1855,47.1521739 C117.892022,48.0619565 117.715935,49.1771739 117.715935,50.6445652 C117.715935,52.1119565 117.92137,53.1978261 118.214848,54.1076087 C119.007239,56.5728261 121.120283,58.0402174 124.113761,58.0402174 Z M126.931152,49.0597826 C126.931152,49.1771739 126.872457,49.2358696 126.755065,49.2358696 L121.208326,49.2358696 C121.090935,49.2358696 121.032239,49.1771739 121.032239,49.0597826 C121.032239,48.5608696 121.090935,48.2086957 121.208326,47.8565217 C121.589848,46.7119565 122.64637,46.0369565 123.99637,46.0369565 C125.317022,46.0369565 126.373544,46.7119565 126.755065,47.8565217 C126.872457,48.2086957 126.931152,48.5608696 126.931152,49.0597826 Z M137.525718,60.1826087 C137.701805,60.1826087 137.819196,60.0652174 137.819196,59.8891304 L137.819196,36.2934783 C137.819196,36.1173913 137.701805,36 137.525718,36 L135.412674,36 C135.236587,36 135.119196,36.1173913 135.119196,36.2934783 L135.119196,59.8891304 C135.119196,60.0652174 135.236587,60.1826087 135.412674,60.1826087 L137.525718,60.1826087 Z M149.000718,57.8934783 C149.176805,57.8934783 149.294196,57.776087 149.294196,57.6 L149.294196,55.2521739 C149.294196,55.076087 149.176805,54.9586957 149.000718,54.9586957 L148.267022,54.9586957 C147.357239,54.9586957 146.94637,54.6358696 146.94637,53.6380435 L146.94637,46.301087 C146.94637,46.1836957 147.005065,46.125 147.122457,46.125 L149.000718,46.125 C149.176805,46.125 149.294196,46.0076087 149.294196,45.8315217 L149.294196,43.8652174 C149.294196,43.6891304 149.176805,43.5717391 149.000718,43.5717391 L147.122457,43.5717391 C147.005065,43.5717391 146.94637,43.5130435 146.94637,43.3956522 L146.94637,39.5217391 C146.94637,39.3456522 146.828978,39.2282609 146.652892,39.2282609 L143.952892,39.2282609 C143.776805,39.2282609 143.659413,39.3456522 143.659413,39.5217391 L143.659413,43.3956522 C143.659413,43.5130435 143.600718,43.5717391 143.483326,43.5717391 L142.544196,43.5717391 C142.368109,43.5717391 142.250718,43.6891304 142.250718,43.8652174 L142.250718,45.8315217 C142.250718,46.0076087 142.368109,46.125 142.544196,46.125 L143.483326,46.125 C143.600718,46.125 143.659413,46.1836957 143.659413,46.301087 L143.659413,53.7554348 C143.659413,56.5141304 144.745283,57.8934783 147.592022,57.8934783 L149.000718,57.8934783 Z M158.509413,58.0402174 C161.12137,58.0402174 163.117022,57.0423913 164.320283,55.6336957 C164.437674,55.4869565 164.437674,55.3402174 164.290935,55.2228261 L162.559413,53.6967391 C162.412674,53.5793478 162.265935,53.6086957 162.119196,53.7554348 C161.414848,54.5184783 160.387674,55.1054348 158.802892,55.1054348 C157.218109,55.1054348 156.102892,54.3423913 155.633326,52.9630435 C155.515935,52.6402174 155.427892,52.2880435 155.427892,51.8771739 C155.427892,51.7597826 155.486587,51.701087 155.603978,51.701087 L164.320283,51.701087 C164.525718,51.701087 164.643109,51.5836957 164.643109,51.4076087 C164.643109,49.1184783 164.49637,48.15 164.173544,47.1521739 C163.381152,44.7456522 161.268109,43.248913 158.362674,43.248913 C155.545283,43.248913 153.373544,44.6869565 152.581152,47.1521739 C152.287674,48.0619565 152.111587,49.1771739 152.111587,50.6445652 C152.111587,52.1119565 152.317022,53.1978261 152.6105,54.1076087 C153.402892,56.5728261 155.515935,58.0402174 158.509413,58.0402174 Z M161.326805,49.0597826 C161.326805,49.1771739 161.268109,49.2358696 161.150718,49.2358696 L155.603978,49.2358696 C155.486587,49.2358696 155.427892,49.1771739 155.427892,49.0597826 C155.427892,48.5608696 155.486587,48.2086957 155.603978,47.8565217 C155.9855,46.7119565 157.042022,46.0369565 158.392022,46.0369565 C159.712674,46.0369565 160.769196,46.7119565 161.150718,47.8565217 C161.268109,48.2086957 161.326805,48.5608696 161.326805,49.0597826 Z M179.052892,57.7173913 C179.228978,57.7173913 179.34637,57.6 179.34637,57.423913 L179.34637,48.1793478 C179.34637,44.7163043 177.761587,43.248913 173.447457,43.248913 C171.128978,43.248913 169.573544,43.8065217 168.428978,44.6282609 C168.311587,44.7163043 168.282239,44.8630435 168.370283,45.0097826 L169.456152,46.9467391 C169.544196,47.0934783 169.720283,47.1228261 169.867022,47.0054348 C170.542022,46.4771739 171.5105,46.0369565 173.095283,46.0369565 C175.472457,46.0369565 176.2355,46.7706522 176.2355,48.3847826 L176.2355,49.0597826 C176.2355,49.1771739 176.176805,49.2358696 176.059413,49.2358696 L173.183326,49.2358696 C169.690935,49.2358696 167.519196,50.6445652 167.519196,53.726087 C167.519196,56.6902174 169.690935,58.0402174 172.273544,58.0402174 C174.269196,58.0402174 175.589848,57.3652174 176.264848,56.3967391 L176.294196,56.3967391 L176.294196,57.423913 C176.294196,57.6 176.411587,57.7173913 176.587674,57.7173913 L179.052892,57.7173913 Z M173.095283,55.3695652 C171.5105,55.3695652 170.659413,54.7826087 170.659413,53.6086957 C170.659413,52.2880435 171.598544,51.701087 173.711587,51.701087 L176.059413,51.701087 C176.176805,51.701087 176.2355,51.7597826 176.2355,51.8771739 L176.2355,52.9630435 C176.2355,54.5771739 175.120283,55.3695652 173.095283,55.3695652 Z M182.603978,59.8891304 C182.515935,60.0652174 182.603978,60.1826087 182.780065,60.1826087 L184.218109,60.1826087 C184.423544,60.1826087 184.570283,60.0945652 184.717022,59.8891304 C187.270283,56.3086957 188.473544,52.1119565 188.473544,48.0913043 C188.473544,44.0706522 187.240935,39.8152174 184.717022,36.2934783 C184.570283,36.0880435 184.423544,36 184.218109,36 L182.780065,36 C182.603978,36 182.515935,36.1173913 182.603978,36.2934783 C184.364848,39.8152174 185.333326,44.0706522 185.333326,48.0913043 C185.333326,52.1119565 184.3355,56.4554348 182.603978,59.8891304 Z M197.630065,58.0402174 C199.743109,58.0402174 201.415935,57.1891304 202.531152,55.8684783 C202.619196,55.7217391 202.648544,55.575 202.501805,55.4576087 L200.652892,53.8434783 C200.506152,53.726087 200.359413,53.726087 200.242022,53.8728261 C199.537674,54.6652174 198.803978,55.1054348 197.630065,55.1054348 C196.368109,55.1054348 195.399631,54.4891304 194.988761,53.2858696 C194.753978,52.5815217 194.695283,51.7304348 194.695283,50.6445652 C194.695283,49.5586957 194.753978,48.7369565 194.988761,48.0326087 C195.399631,46.8 196.368109,46.1836957 197.630065,46.1836957 C198.803978,46.1836957 199.537674,46.623913 200.242022,47.4163043 C200.359413,47.5630435 200.506152,47.5923913 200.652892,47.475 L202.501805,45.8608696 C202.648544,45.7434783 202.619196,45.5673913 202.531152,45.45 C201.415935,44.1 199.743109,43.248913 197.630065,43.248913 C194.783326,43.248913 192.611587,44.6282609 191.789848,47.1521739 C191.49637,48.0326087 191.349631,49.1478261 191.349631,50.6445652 C191.349631,52.1413043 191.49637,53.2565217 191.789848,54.1369565 C192.611587,56.6608696 194.783326,58.0402174 197.630065,58.0402174 Z M216.412674,57.7173913 C216.588761,57.7173913 216.706152,57.6 216.706152,57.423913 L216.706152,48.1793478 C216.706152,44.7163043 215.12137,43.248913 210.807239,43.248913 C208.488761,43.248913 206.933326,43.8065217 205.788761,44.6282609 C205.67137,44.7163043 205.642022,44.8630435 205.730065,45.0097826 L206.815935,46.9467391 C206.903978,47.0934783 207.080065,47.1228261 207.226805,47.0054348 C207.901805,46.4771739 208.870283,46.0369565 210.455065,46.0369565 C212.832239,46.0369565 213.595283,46.7706522 213.595283,48.3847826 L213.595283,49.0597826 C213.595283,49.1771739 213.536587,49.2358696 213.419196,49.2358696 L210.543109,49.2358696 C207.050718,49.2358696 204.878978,50.6445652 204.878978,53.726087 C204.878978,56.6902174 207.050718,58.0402174 209.633326,58.0402174 C211.628978,58.0402174 212.949631,57.3652174 213.624631,56.3967391 L213.653978,56.3967391 L213.653978,57.423913 C213.653978,57.6 213.77137,57.7173913 213.947457,57.7173913 L216.412674,57.7173913 Z M210.455065,55.3695652 C208.870283,55.3695652 208.019196,54.7826087 208.019196,53.6086957 C208.019196,52.2880435 208.958326,51.701087 211.07137,51.701087 L213.419196,51.701087 C213.536587,51.701087 213.595283,51.7597826 213.595283,51.8771739 L213.595283,52.9630435 C213.595283,54.5771739 212.480065,55.3695652 210.455065,55.3695652 Z M232.289848,57.7173913 C232.465935,57.7173913 232.583326,57.6 232.583326,57.423913 L232.583326,38.0543478 C232.583326,37.8782609 232.465935,37.7608696 232.289848,37.7608696 L229.589848,37.7608696 C229.413761,37.7608696 229.29637,37.8782609 229.29637,38.0543478 L229.29637,44.9217391 L229.267022,44.9217391 C228.592022,43.9532609 227.418109,43.248913 225.5105,43.248913 C223.103978,43.248913 221.343109,44.3934783 220.609413,46.6532609 C220.257239,47.7391304 220.1105,48.7369565 220.1105,50.6445652 C220.1105,52.5521739 220.257239,53.55 220.609413,54.6358696 C221.343109,56.8956522 223.103978,58.0402174 225.5105,58.0402174 C227.418109,58.0402174 228.592022,57.3358696 229.267022,56.3673913 L229.29637,56.3673913 L229.29637,57.423913 C229.29637,57.6 229.413761,57.7173913 229.589848,57.7173913 L232.289848,57.7173913 Z M226.361587,55.1054348 C225.040935,55.1054348 224.131152,54.4597826 223.749631,53.2858696 C223.544196,52.6402174 223.456152,51.9358696 223.456152,50.6445652 C223.456152,49.3532609 223.544196,48.648913 223.749631,48.0032609 C224.131152,46.8293478 225.040935,46.1836957 226.361587,46.1836957 C227.711587,46.1836957 228.62137,46.8293478 229.002892,48.0032609 C229.208326,48.648913 229.29637,49.3532609 229.29637,50.6445652 C229.29637,51.9358696 229.208326,52.6402174 229.002892,53.2858696 C228.62137,54.4597826 227.711587,55.1054348 226.361587,55.1054348 Z M242.502892,58.0402174 C245.114848,58.0402174 247.1105,57.0423913 248.313761,55.6336957 C248.431152,55.4869565 248.431152,55.3402174 248.284413,55.2228261 L246.552892,53.6967391 C246.406152,53.5793478 246.259413,53.6086957 246.112674,53.7554348 C245.408326,54.5184783 244.381152,55.1054348 242.79637,55.1054348 C241.211587,55.1054348 240.09637,54.3423913 239.626805,52.9630435 C239.509413,52.6402174 239.42137,52.2880435 239.42137,51.8771739 C239.42137,51.7597826 239.480065,51.701087 239.597457,51.701087 L248.313761,51.701087 C248.519196,51.701087 248.636587,51.5836957 248.636587,51.4076087 C248.636587,49.1184783 248.489848,48.15 248.167022,47.1521739 C247.374631,44.7456522 245.261587,43.248913 242.356152,43.248913 C239.538761,43.248913 237.367022,44.6869565 236.574631,47.1521739 C236.281152,48.0619565 236.105065,49.1771739 236.105065,50.6445652 C236.105065,52.1119565 236.3105,53.1978261 236.603978,54.1076087 C237.39637,56.5728261 239.509413,58.0402174 242.502892,58.0402174 Z M245.320283,49.0597826 C245.320283,49.1771739 245.261587,49.2358696 245.144196,49.2358696 L239.597457,49.2358696 C239.480065,49.2358696 239.42137,49.1771739 239.42137,49.0597826 C239.42137,48.5608696 239.480065,48.2086957 239.597457,47.8565217 C239.978978,46.7119565 241.0355,46.0369565 242.3855,46.0369565 C243.706152,46.0369565 244.762674,46.7119565 245.144196,47.8565217 C245.261587,48.2086957 245.320283,48.5608696 245.320283,49.0597826 Z M272.467022,57.7173913 C272.643109,57.7173913 272.7605,57.6 272.7605,57.423913 L272.7605,48.5021739 C272.7605,45.4793478 270.911587,43.248913 267.624631,43.248913 C265.599631,43.248913 264.190935,43.9532609 263.105065,45.1271739 L263.075718,45.1271739 C262.224631,43.923913 260.874631,43.248913 259.201805,43.248913 C257.323544,43.248913 256.090935,44.0119565 255.474631,44.8923913 L255.445283,44.8923913 L255.445283,43.8652174 C255.445283,43.6891304 255.327892,43.5717391 255.151805,43.5717391 L252.451805,43.5717391 C252.275718,43.5717391 252.158326,43.6891304 252.158326,43.8652174 L252.158326,57.423913 C252.158326,57.6 252.275718,57.7173913 252.451805,57.7173913 L255.151805,57.7173913 C255.327892,57.7173913 255.445283,57.6 255.445283,57.423913 L255.445283,49.2652174 C255.445283,47.4456522 256.443109,46.1836957 258.145283,46.1836957 C259.906152,46.1836957 260.815935,47.4456522 260.815935,49.2652174 L260.815935,57.423913 C260.815935,57.6 260.933326,57.7173913 261.109413,57.7173913 L263.809413,57.7173913 C263.9855,57.7173913 264.102892,57.6 264.102892,57.423913 L264.102892,49.2652174 C264.102892,47.4456522 265.100718,46.1836957 266.802892,46.1836957 C268.563761,46.1836957 269.473544,47.4456522 269.473544,49.2652174 L269.473544,57.423913 C269.473544,57.6 269.590935,57.7173913 269.767022,57.7173913 L272.467022,57.7173913 Z M278.131152,63 C280.478978,63 281.652892,61.9434783 282.8855,58.5978261 L288.2855,43.8652174 C288.344196,43.6891304 288.226805,43.5717391 288.050718,43.5717391 L285.262674,43.5717391 C285.086587,43.5717391 284.969196,43.6891304 284.9105,43.8652174 L281.858326,53.1097826 L281.799631,53.1097826 L278.600718,43.8652174 C278.542022,43.6891304 278.424631,43.5717391 278.248544,43.5717391 L275.343109,43.5717391 C275.167022,43.5717391 275.049631,43.6891304 275.108326,43.8652174 L280.273544,57.1891304 L279.862674,58.3923913 C279.422457,59.5663043 278.864848,60.0652174 277.749631,60.0652174 L277.22137,60.0652174 C277.045283,60.0652174 276.927892,60.1826087 276.927892,60.3586957 L276.927892,62.7065217 C276.927892,62.8826087 277.045283,63 277.22137,63 L278.131152,63 Z M290.398544,57.7467391 C290.339848,57.9228261 290.427892,58.0402174 290.603978,58.0402174 L292.805065,58.0402174 C293.0105,58.0402174 293.127892,57.9521739 293.186587,57.7467391 L299.701805,37.7315217 C299.7605,37.5554348 299.672457,37.4380435 299.49637,37.4380435 L297.295283,37.4380435 C297.089848,37.4380435 296.972457,37.526087 296.913761,37.7315217 L290.398544,57.7467391 Z" id="/(coffee|tea)cademy/"></path>
        </g>
    </g>
</svg>