<?xml version="1.0" encoding="UTF-8"?>
<svg width="44px" height="34px" viewBox="0 0 44 34" version="1.1" xmlns="http://www.w3.org/2000/svg" xmlns:xlink="http://www.w3.org/1999/xlink">
    <!-- Generator: Sketch 41.2 (35397) - http://www.bohemiancoding.com/sketch -->
    <title>noun_652420_cc</title>
    <desc>Created with Sketch.</desc>
    <defs></defs>
    <g id="Page-1" stroke="none" stroke-width="1" fill="none" fill-rule="evenodd">
        <g id="Landing" transform="translate(-553.000000, -128.000000)" stroke="#000000" fill="#000000">
            <g id="noun_652420_cc" transform="translate(554.000000, 129.000000)">
                <g id="flower_017-tea-blossom-nature-spring">
                    <g id="Group">
                        <g id="Shape">
                            <g>
                                <path d="M3.28125,11.1020408 C3.28125,5.69190449 7.68844703,1.30612245 13.125,1.30612245 C15.9875699,1.30612245 18.6501668,2.5279869 20.5079836,4.622652 C20.7478203,4.89306474 21.1625294,4.91879634 21.4342626,4.68012512 C21.7059957,4.44145391 21.731853,4.02875982 21.4920164,3.75834708 C19.3876109,1.38565649 16.3680905,0 13.125,0 C6.96357329,0 1.96875,4.97055298 1.96875,11.1020408 C1.96875,11.5844392 1.99970567,12.0631877 2.0610593,12.5362702 C2.10745026,12.8939792 3.4091543,12.726799 3.36276335,12.36909 C3.30859501,11.9514114 3.28125,11.5285042 3.28125,11.1020408 Z"></path>
                                <path d="M40.03125,11.1020408 C40.03125,4.97055298 35.0364267,0 28.875,0 C22.7135733,0 17.71875,4.97055298 17.71875,11.1020408 C17.71875,11.4442215 17.7343255,11.7846077 17.7652899,12.1224898 C17.7982065,12.481675 18.1174897,12.7462975 18.4784287,12.7135408 C18.8393677,12.6807841 19.1052823,12.3630524 19.0723657,12.0038672 C19.0450143,11.70541 19.03125,11.4046055 19.03125,11.1020408 C19.03125,5.69190449 23.438447,1.30612245 28.875,1.30612245 C34.311553,1.30612245 38.71875,5.69190449 38.71875,11.1020408 C38.71875,11.5174992 38.6927981,11.9295874 38.6413744,12.3367615 C38.5961788,12.694622 38.8510602,13.0211856 39.2106681,13.0661616 C39.570276,13.1111377 39.8984341,12.8574947 39.9436298,12.4996342 C40.0018724,12.0384677 40.03125,11.5719828 40.03125,11.1020408 Z"></path>
                                <path d="M21,11.1020408 C17.6147957,11.1020408 14.5437233,12.6761112 12.9391453,15.1727318 C12.743864,15.476577 12.8330751,15.8804298 13.1384039,16.0747622 C13.4437328,16.2690947 13.8495574,16.180317 14.0448388,15.8764718 C15.4011649,13.7661152 18.0505819,12.4081633 21,12.4081633 C23.9445247,12.4081633 26.5902797,13.7615929 27.9487611,15.8665342 C28.1446187,16.1700119 28.5506112,16.2580266 28.8555706,16.0631207 C29.1605301,15.8682149 29.2489746,15.4641951 29.053117,15.1607175 C27.4461729,12.670788 24.3795042,11.1020408 21,11.1020408 Z"></path>
                                <path d="M41.9509293,12.5416055 C41.9751006,12.1882174 41.7117808,11.8800754 41.3573969,11.8470417 C40.7012269,11.7858774 40.6414592,12.452908 40.6414592,12.452908 C39.9411519,22.6915415 31.3678194,30.6938776 21,30.6938776 C20.6375632,30.6938776 20.34375,30.9862631 20.34375,31.3469388 C20.34375,31.7076145 20.6375632,32 21,32 C32.0592352,32 41.2038227,23.4644554 41.9509293,12.5416055 Z"></path>
                                <path d="M41.9509293,12.5416055 C41.9751006,12.1882174 41.7117808,11.8800754 41.3573969,11.8470417 C40.7012269,11.7858774 40.0399496,11.755102 39.375,11.755102 C34.5147042,11.755102 29.9063545,13.4040507 26.2011626,16.3777296 C25.9190422,16.6041512 25.8747857,17.0152945 26.1023128,17.296044 C26.32984,17.5767935 26.7429909,17.620835 27.0251112,17.3944135 C30.4989991,14.6063724 34.8172548,13.0612245 39.375,13.0612245 C39.9990661,13.0612245 40.6194973,13.0900989 41.2349917,13.1474717 L41.9509293,12.5416055 Z"></path>
                                <path d="M0.765008318,13.1474717 C1.38050269,13.0900989 2.00093387,13.0612245 2.625,13.0612245 C7.18274517,13.0612245 11.5010009,14.6063724 14.9748888,17.3944135 C15.2570091,17.620835 15.67016,17.5767935 15.8976872,17.296044 C16.1252143,17.0152945 16.0809578,16.6041512 15.7988374,16.3777296 C12.0936455,13.4040507 7.48529578,11.755102 2.625,11.755102 C1.96005042,11.755102 1.2987731,11.7858774 0.642603143,11.8470417 C0.288219161,11.8800754 0.0248994556,12.1882174 0.0490706733,12.5416055 L0.765008318,13.1474717 Z"></path>
                                <path d="M1.35854079,12.452908 C1.35854079,12.452908 1.2987731,11.7858774 0.642603143,11.8470417 C0.288219161,11.8800754 0.0248994556,12.1882174 0.0490706733,12.5416055 C0.796177364,23.4644554 9.94076482,32 21,32 C21.3624368,32 21.65625,31.7076145 21.65625,31.3469388 C21.65625,30.9862631 21.3624368,30.6938776 21,30.6938776 C10.6321806,30.6938776 2.05884809,22.6915415 1.35854079,12.452908 Z"></path>
                                <path d="M32.15625,23.5102041 C32.15625,18.7739318 27.1271149,15.0204082 21,15.0204082 C14.8728851,15.0204082 9.84375,18.7739318 9.84375,23.5102041 C9.84375,28.2464764 14.8728851,32 21,32 C27.1271149,32 32.15625,28.2464764 32.15625,23.5102041 Z M11.15625,23.5102041 C11.15625,19.5902583 15.5291351,16.3265306 21,16.3265306 C26.4708649,16.3265306 30.84375,19.5902583 30.84375,23.5102041 C30.84375,27.4301499 26.4708649,30.6938776 21,30.6938776 C15.5291351,30.6938776 11.15625,27.4301499 11.15625,23.5102041 Z"></path>
                            </g>
                        </g>
                    </g>
                </g>
            </g>
        </g>
    </g>
</svg>