<svg xmlns="http://www.w3.org/2000/svg" xmlns:xlink="http://www.w3.org/1999/xlink" version="1.1" x="0px" y="0px" viewBox="0 0 595.28 745" xml:space="preserve"><path d="M411.294,236.614c0,7.038-5.701,12.738-12.737,12.738H196.723c-7.037,0-12.737-5.7-12.737-12.738l0,0  c0-7.036,5.7-12.737,12.737-12.737h201.834C405.593,223.877,411.294,229.578,411.294,236.614L411.294,236.614z" fill="#FFFFFF"/><path d="M411.294,298c0,7.038-5.701,12.737-12.737,12.737H196.723c-7.037,0-12.737-5.699-12.737-12.737l0,0  c0-7.036,5.7-12.737,12.737-12.737h201.834C405.593,285.263,411.294,290.964,411.294,298L411.294,298z" fill="#FFFFFF"/><path d="M411.294,359.386c0,7.036-5.701,12.737-12.737,12.737H196.723c-7.037,0-12.737-5.701-12.737-12.737l0,0  c0-7.036,5.7-12.737,12.737-12.737h201.834C405.593,346.648,411.294,352.35,411.294,359.386L411.294,359.386z" fill="#FFFFFF"/></svg>
