<?xml version="1.0" encoding="UTF-8"?>
<svg width="268px" height="34px" viewBox="0 0 268 34" version="1.1" xmlns="http://www.w3.org/2000/svg" xmlns:xlink="http://www.w3.org/1999/xlink">
    <!-- Generator: Sketch 42 (36781) - http://www.bohemiancoding.com/sketch -->
    <title>Group</title>
    <desc>Created with Sketch.</desc>
    <defs>
        <rect id="path-1" x="200" y="0" width="68" height="34"></rect>
        <mask id="mask-2" maskContentUnits="userSpaceOnUse" maskUnits="objectBoundingBox" x="0" y="0" width="68" height="34" fill="white">
            <use xlink:href="#path-1"></use>
        </mask>
    </defs>
    <g id="Page-1" stroke="none" stroke-width="1" fill="none" fill-rule="evenodd">
        <g id="Group">
            <g id="logo" transform="translate(0.000000, 4.000000)" fill-rule="nonzero" fill="#FFFFFF" opacity="0.791">
                <g id="Page-1">
                    <g id="logo">
                        <path d="M4.159,23.889 C4.306,24.095 4.453,24.183 4.659,24.183 L6.096,24.183 C6.272,24.183 6.361,24.065 6.272,23.889 C4.541,20.455 3.543,16.112 3.543,12.091 C3.543,8.071 4.512,3.815 6.273,0.293 C6.361,0.117 6.273,-7.21644961e-16 6.096,-7.21644961e-16 L4.658,-7.21644961e-16 C4.453,-7.21644961e-16 4.306,0.088 4.159,0.293 C1.636,3.815 0.403,8.071 0.403,12.091 C0.403,16.112 1.606,20.309 4.159,23.889 L4.159,23.889 Z M15.165,22.04 C17.278,22.04 18.951,21.19 20.065,19.868 C20.154,19.722 20.183,19.575 20.037,19.458 L18.187,17.843 C18.041,17.726 17.894,17.726 17.777,17.873 C17.072,18.665 16.339,19.105 15.165,19.105 C13.903,19.105 12.935,18.489 12.524,17.285 C12.289,16.582 12.23,15.73 12.23,14.645 C12.23,13.559 12.289,12.737 12.524,12.033 C12.934,10.8 13.903,10.183 15.164,10.183 C16.339,10.183 17.072,10.623 17.777,11.416 C17.894,11.563 18.041,11.592 18.187,11.475 L20.037,9.861 C20.183,9.743 20.154,9.567 20.066,9.45 C18.951,8.1 17.278,7.249 15.165,7.249 C12.318,7.249 10.146,8.629 9.325,11.152 C9.031,12.032 8.885,13.148 8.885,14.645 C8.885,16.141 9.031,17.257 9.325,18.137 C10.146,20.661 12.318,22.04 15.165,22.04 L15.165,22.04 Z M29.135,22.04 C31.981,22.04 34.153,20.602 34.945,18.137 C35.268,17.139 35.415,16.2 35.415,14.645 C35.415,13.089 35.268,12.15 34.945,11.152 C34.153,8.687 31.981,7.249 29.135,7.249 C26.258,7.249 24.087,8.687 23.295,11.152 C22.971,12.15 22.825,13.089 22.825,14.645 C22.825,16.2 22.971,17.139 23.295,18.137 C24.087,20.602 26.258,22.04 29.135,22.04 L29.135,22.04 Z M29.135,19.105 C27.814,19.105 26.875,18.43 26.464,17.257 C26.229,16.523 26.17,15.847 26.17,14.645 C26.17,13.441 26.229,12.795 26.464,12.033 C26.874,10.859 27.814,10.183 29.134,10.183 C30.455,10.183 31.364,10.859 31.776,12.033 C32.011,12.796 32.069,13.441 32.069,14.645 C32.069,15.848 32.011,16.523 31.776,17.257 C31.365,18.43 30.456,19.105 29.134,19.105 L29.135,19.105 Z M42.37,21.717 C42.546,21.717 42.664,21.6 42.664,21.424 L42.664,10.3 C42.664,10.183 42.722,10.124 42.84,10.124 L45.364,10.124 C45.54,10.124 45.657,10.007 45.657,9.831 L45.657,7.865 C45.657,7.689 45.54,7.572 45.364,7.572 L42.84,7.572 C42.722,7.572 42.664,7.513 42.664,7.396 L42.664,6.427 C42.664,5.047 42.987,4.696 44.454,4.696 L45.364,4.696 C45.54,4.696 45.657,4.578 45.657,4.402 L45.657,2.054 C45.657,1.878 45.54,1.761 45.364,1.761 L44.072,1.761 C40.991,1.761 39.377,3.199 39.377,6.486 L39.377,7.396 C39.377,7.513 39.318,7.572 39.201,7.572 L38.261,7.572 C38.086,7.572 37.968,7.689 37.968,7.865 L37.968,9.832 C37.968,10.008 38.086,10.125 38.262,10.125 L39.201,10.125 C39.318,10.125 39.377,10.184 39.377,10.301 L39.377,21.424 C39.377,21.6 39.494,21.717 39.67,21.717 L42.37,21.717 Z M51.996,21.717 C52.172,21.717 52.29,21.6 52.29,21.424 L52.29,10.3 C52.29,10.183 52.349,10.124 52.466,10.124 L54.99,10.124 C55.166,10.124 55.283,10.007 55.283,9.831 L55.283,7.865 C55.283,7.689 55.166,7.572 54.99,7.572 L52.466,7.572 C52.349,7.572 52.29,7.513 52.29,7.396 L52.29,6.427 C52.29,5.047 52.613,4.696 54.08,4.696 L54.99,4.696 C55.166,4.696 55.283,4.578 55.283,4.402 L55.283,2.054 C55.283,1.878 55.166,1.761 54.99,1.761 L53.699,1.761 C50.617,1.761 49.003,3.199 49.003,6.486 L49.003,7.396 C49.003,7.513 48.944,7.572 48.827,7.572 L47.887,7.572 C47.712,7.572 47.594,7.689 47.594,7.865 L47.594,9.832 C47.594,10.008 47.712,10.125 47.888,10.125 L48.827,10.125 C48.944,10.125 49.003,10.184 49.003,10.301 L49.003,21.424 C49.003,21.6 49.12,21.717 49.296,21.717 L51.996,21.717 L51.996,21.717 Z M63.824,22.04 C66.436,22.04 68.431,21.042 69.634,19.634 C69.752,19.487 69.752,19.34 69.605,19.223 L67.874,17.697 C67.727,17.579 67.58,17.609 67.434,17.755 C66.729,18.518 65.702,19.105 64.117,19.105 C62.532,19.105 61.417,18.342 60.947,16.963 C60.8143781,16.6161421 60.7449488,16.2483358 60.742,15.877 C60.742,15.76 60.801,15.701 60.918,15.701 L69.634,15.701 C69.84,15.701 69.957,15.584 69.957,15.408 C69.957,13.118 69.811,12.15 69.487,11.152 C68.695,8.746 66.582,7.249 63.677,7.249 C60.859,7.249 58.687,8.687 57.895,11.152 C57.602,12.062 57.425,13.177 57.425,14.645 C57.425,16.112 57.631,17.198 57.925,18.108 C58.717,20.573 60.83,22.04 63.824,22.04 L63.824,22.04 Z M66.641,13.06 C66.641,13.177 66.582,13.236 66.465,13.236 L60.918,13.236 C60.801,13.236 60.742,13.177 60.742,13.06 C60.742,12.56 60.801,12.209 60.918,11.857 C61.3,10.712 62.356,10.037 63.706,10.037 C65.026,10.037 66.083,10.712 66.465,11.857 C66.582,12.209 66.641,12.561 66.641,13.06 Z M79.114,22.04 C81.726,22.04 83.721,21.042 84.924,19.634 C85.042,19.487 85.042,19.34 84.895,19.223 L83.164,17.697 C83.017,17.579 82.87,17.609 82.724,17.755 C82.019,18.518 80.992,19.105 79.407,19.105 C77.822,19.105 76.707,18.342 76.237,16.963 C76.1043781,16.6161421 76.0349488,16.2483358 76.032,15.877 C76.032,15.76 76.091,15.701 76.208,15.701 L84.925,15.701 C85.13,15.701 85.247,15.584 85.247,15.408 C85.247,13.118 85.101,12.15 84.777,11.152 C83.986,8.746 81.872,7.249 78.967,7.249 C76.15,7.249 73.977,8.687 73.186,11.152 C72.892,12.062 72.716,13.177 72.716,14.645 C72.716,16.112 72.921,17.198 73.215,18.108 C74.007,20.573 76.12,22.04 79.114,22.04 L79.114,22.04 Z M81.931,13.06 C81.931,13.177 81.872,13.236 81.755,13.236 L76.208,13.236 C76.091,13.236 76.032,13.177 76.032,13.06 C76.032,12.56 76.091,12.209 76.208,11.857 C76.59,10.712 77.646,10.037 78.996,10.037 C80.317,10.037 81.374,10.712 81.756,11.857 C81.872,12.209 81.931,12.561 81.931,13.06 Z M88.603,23.89 C88.515,24.065 88.603,24.183 88.779,24.183 L90.217,24.183 C90.423,24.183 90.569,24.095 90.716,23.889 C93.269,20.309 94.473,16.112 94.473,12.091 C94.473,8.071 93.24,3.815 90.716,0.293 C90.569,0.088 90.423,-4.27435864e-15 90.217,-4.27435864e-15 L88.779,-4.27435864e-15 C88.603,-4.27435864e-15 88.515,0.117 88.603,0.293 C90.363,3.815 91.333,8.071 91.333,12.091 C91.333,16.112 90.334,20.455 88.603,23.889 L88.603,23.89 Z M103.629,22.04 C105.742,22.04 107.415,21.19 108.53,19.868 C108.618,19.722 108.648,19.575 108.5,19.458 L106.652,17.843 C106.505,17.726 106.358,17.726 106.241,17.873 C105.537,18.665 104.803,19.105 103.629,19.105 C102.367,19.105 101.399,18.489 100.988,17.285 C100.753,16.582 100.694,15.73 100.694,14.645 C100.694,13.559 100.753,12.737 100.988,12.033 C101.398,10.8 102.368,10.183 103.629,10.183 C104.803,10.183 105.537,10.623 106.241,11.416 C106.358,11.563 106.505,11.592 106.651,11.475 L108.501,9.861 C108.648,9.743 108.618,9.567 108.531,9.45 C107.415,8.1 105.742,7.249 103.629,7.249 C100.782,7.249 98.611,8.629 97.789,11.152 C97.495,12.032 97.349,13.148 97.349,14.645 C97.349,16.141 97.495,17.257 97.789,18.137 C98.611,20.661 100.782,22.04 103.629,22.04 Z M122.412,21.717 C122.588,21.717 122.705,21.6 122.705,21.424 L122.705,12.179 C122.705,8.716 121.12,7.249 116.806,7.249 C114.488,7.249 112.932,7.807 111.788,8.629 C111.67,8.716 111.641,8.863 111.729,9.009 L112.815,10.947 C112.903,11.093 113.079,11.123 113.225,11.005 C113.901,10.477 114.869,10.037 116.455,10.037 C118.831,10.037 119.595,10.771 119.595,12.385 L119.595,13.06 C119.595,13.177 119.535,13.236 119.418,13.236 L116.542,13.236 C113.05,13.236 110.878,14.645 110.878,17.726 C110.878,20.69 113.05,22.04 115.632,22.04 C117.628,22.04 118.949,21.365 119.624,20.397 L119.653,20.397 L119.653,21.424 C119.653,21.6 119.77,21.717 119.946,21.717 L122.412,21.717 L122.412,21.717 Z M116.454,19.37 C114.869,19.37 114.018,18.783 114.018,17.609 C114.018,16.288 114.958,15.701 117.07,15.701 L119.418,15.701 C119.536,15.701 119.594,15.76 119.594,15.877 L119.594,16.963 C119.594,18.577 118.479,19.37 116.454,19.37 Z M138.289,21.717 C138.465,21.717 138.582,21.6 138.582,21.424 L138.582,2.054 C138.582,1.878 138.465,1.761 138.289,1.761 L135.589,1.761 C135.413,1.761 135.295,1.878 135.295,2.054 L135.295,8.922 L135.266,8.922 C134.591,7.953 133.417,7.249 131.51,7.249 C129.103,7.249 127.342,8.393 126.608,10.653 C126.256,11.739 126.109,12.737 126.109,14.645 C126.109,16.552 126.256,17.55 126.609,18.635 C127.342,20.895 129.103,22.04 131.509,22.04 C133.417,22.04 134.591,21.336 135.266,20.367 L135.296,20.367 L135.296,21.424 C135.296,21.6 135.413,21.717 135.589,21.717 L138.289,21.717 L138.289,21.717 Z M132.361,19.105 C131.04,19.105 130.131,18.46 129.749,17.285 C129.543,16.64 129.455,15.935 129.455,14.645 C129.455,13.353 129.543,12.649 129.749,12.003 C130.13,10.829 131.039,10.183 132.361,10.183 C133.711,10.183 134.621,10.829 135.001,12.003 C135.207,12.649 135.295,13.353 135.295,14.645 C135.295,15.935 135.207,16.64 135.002,17.285 C134.62,18.46 133.711,19.105 132.361,19.105 Z M148.501,22.04 C151.114,22.04 153.109,21.042 154.313,19.634 C154.43,19.487 154.43,19.34 154.283,19.223 L152.552,17.697 C152.405,17.579 152.258,17.609 152.112,17.755 C151.407,18.518 150.38,19.105 148.795,19.105 C147.211,19.105 146.095,18.342 145.625,16.963 C145.492378,16.6161421 145.422949,16.2483358 145.42,15.877 C145.42,15.76 145.48,15.701 145.596,15.701 L154.313,15.701 C154.518,15.701 154.636,15.584 154.636,15.408 C154.636,13.118 154.489,12.15 154.166,11.152 C153.374,8.746 151.261,7.249 148.356,7.249 C145.538,7.249 143.366,8.687 142.574,11.152 C142.28,12.062 142.104,13.177 142.104,14.645 C142.104,16.112 142.31,17.198 142.603,18.108 C143.395,20.573 145.508,22.04 148.502,22.04 L148.501,22.04 Z M151.319,13.06 C151.319,13.177 151.261,13.236 151.143,13.236 L145.596,13.236 C145.479,13.236 145.42,13.177 145.42,13.06 C145.42,12.56 145.48,12.209 145.596,11.857 C145.978,10.712 147.035,10.037 148.384,10.037 C149.705,10.037 150.762,10.712 151.144,11.857 C151.261,12.209 151.319,12.561 151.319,13.06 L151.319,13.06 Z M178.466,21.717 C178.642,21.717 178.759,21.6 178.759,21.424 L178.759,12.502 C178.759,9.479 176.911,7.249 173.624,7.249 C171.599,7.249 170.19,7.953 169.104,9.127 L169.074,9.127 C168.224,7.924 166.874,7.249 165.201,7.249 C163.323,7.249 162.09,8.012 161.474,8.892 L161.444,8.892 L161.444,7.865 C161.444,7.689 161.327,7.572 161.151,7.572 L158.451,7.572 C158.275,7.572 158.157,7.689 158.157,7.865 L158.157,21.424 C158.157,21.6 158.275,21.717 158.451,21.717 L161.151,21.717 C161.327,21.717 161.444,21.6 161.444,21.424 L161.444,13.265 C161.444,11.445 162.442,10.184 164.144,10.184 C165.905,10.184 166.814,11.446 166.814,13.265 L166.814,21.424 C166.814,21.6 166.932,21.717 167.108,21.717 L169.808,21.717 C169.985,21.717 170.102,21.6 170.102,21.424 L170.102,13.265 C170.102,11.445 171.1,10.184 172.802,10.184 C174.562,10.184 175.472,11.446 175.472,13.265 L175.472,21.424 C175.472,21.6 175.59,21.717 175.766,21.717 L178.466,21.717 L178.466,21.717 Z M184.131,27 C186.479,27 187.653,25.943 188.885,22.598 L194.285,7.865 C194.345,7.689 194.227,7.572 194.051,7.572 L191.263,7.572 C191.087,7.572 190.969,7.689 190.911,7.865 L187.858,17.11 L187.8,17.11 L184.6,7.865 C184.542,7.689 184.425,7.572 184.249,7.572 L181.343,7.572 C181.167,7.572 181.05,7.689 181.108,7.865 L186.274,21.189 L185.863,22.392 C185.423,23.566 184.865,24.065 183.75,24.065 L183.221,24.065 C183.045,24.065 182.928,24.183 182.928,24.359 L182.928,26.707 C182.928,26.883 183.045,27 183.221,27 L184.131,27 L184.131,27 Z" id="Shape"></path>
                    </g>
                </g>
            </g>
            <path d="M216.009685,26.198 C214.203795,26.198 213.092478,25.5312098 212.45347,24.6143734 L212.425687,24.6143734 L212.425687,25.6145586 C212.425687,25.7812562 212.314556,25.8923878 212.147858,25.8923878 L209.591829,25.8923878 C209.425132,25.8923878 209.314,25.7812562 209.314,25.6145586 L209.314,7.27782923 C209.314,7.11113169 209.425132,7 209.591829,7 L212.147858,7 C212.314556,7 212.425687,7.11113169 212.425687,7.27782923 L212.425687,13.7790333 L212.45347,13.7790333 C213.092478,12.8621968 214.203795,12.1954067 216.009685,12.1954067 C218.287884,12.1954067 219.95486,13.2789407 220.649433,15.4182258 C220.982828,16.4461939 221.121742,17.3908133 221.121742,19.1967033 C221.121742,21.0025933 220.982828,21.9472127 220.649433,22.9751809 C219.95486,25.114466 218.287884,26.198 216.009685,26.198 Z M215.20398,23.4197077 C216.454211,23.4197077 217.315482,22.8084834 217.67666,21.6971664 C217.87114,21.0859421 217.954489,20.419152 217.954489,19.1967033 C217.954489,17.9742547 217.87114,17.3074645 217.67666,16.6962402 C217.315482,15.5849233 216.454211,14.973699 215.20398,14.973699 C213.925965,14.973699 213.064695,15.5849233 212.703517,16.6962402 C212.509036,17.3074645 212.425687,17.9742547 212.425687,19.1967033 C212.425687,20.419152 212.509036,21.0859421 212.703517,21.6971664 C213.064695,22.8084834 213.925965,23.4197077 215.20398,23.4197077 Z M229.790014,26.198 C226.956156,26.198 224.955786,24.8088538 224.205647,22.4750883 C223.927818,21.6138177 223.733337,20.5858495 223.733337,19.1967033 C223.733337,17.8075572 223.900035,16.7518061 224.177864,15.8905355 C224.928003,13.5567699 226.983939,12.1954067 229.6511,12.1954067 C232.401609,12.1954067 234.40198,13.6123357 235.152119,15.8905355 C235.457731,16.8351548 235.596645,17.7519913 235.596645,19.9190593 C235.596645,20.0857569 235.485514,20.1968886 235.291033,20.1968886 L227.039505,20.1968886 C226.928373,20.1968886 226.872808,20.2524544 226.872808,20.3635861 C226.872808,20.752547 226.956156,21.0859421 227.067288,21.3915543 C227.511815,22.6973517 228.567566,23.4197077 230.067844,23.4197077 C231.568122,23.4197077 232.540524,22.8640492 233.207314,22.1416932 C233.346229,22.0027786 233.485143,21.9749957 233.624058,22.0861274 L235.26325,23.5308394 C235.402165,23.6419711 235.402165,23.7808857 235.291033,23.9198003 C234.151933,25.2533806 232.262695,26.198 229.790014,26.198 Z M232.457175,17.6964255 C232.457175,17.2241158 232.401609,16.8907207 232.290478,16.5573256 C231.9293,15.4737916 230.929114,14.8347844 229.678883,14.8347844 C228.400868,14.8347844 227.400683,15.4737916 227.039505,16.5573256 C226.928373,16.8907207 226.872808,17.2241158 226.872808,17.6964255 C226.872808,17.8075572 226.928373,17.863123 227.039505,17.863123 L232.290478,17.863123 C232.401609,17.863123 232.457175,17.8075572 232.457175,17.6964255 Z M244.181569,26.0590854 C244.348266,26.0590854 244.459398,25.9479537 244.459398,25.7812562 L244.459398,23.5586223 C244.459398,23.3919247 244.348266,23.2807931 244.181569,23.2807931 L243.486996,23.2807931 C242.625725,23.2807931 242.236764,22.9751809 242.236764,22.0305615 L242.236764,15.0848307 C242.236764,14.973699 242.29233,14.9181331 242.403462,14.9181331 L244.181569,14.9181331 C244.348266,14.9181331 244.459398,14.8070014 244.459398,14.6403039 L244.459398,12.778848 C244.459398,12.6121505 244.348266,12.5010188 244.181569,12.5010188 L242.403462,12.5010188 C242.29233,12.5010188 242.236764,12.445453 242.236764,12.3343213 L242.236764,8.6669754 C242.236764,8.50027786 242.125632,8.38914616 241.958935,8.38914616 L239.402906,8.38914616 C239.236208,8.38914616 239.125077,8.50027786 239.125077,8.6669754 L239.125077,12.3343213 C239.125077,12.445453 239.069511,12.5010188 238.958379,12.5010188 L238.069326,12.5010188 C237.902628,12.5010188 237.791496,12.6121505 237.791496,12.778848 L237.791496,14.6403039 C237.791496,14.8070014 237.902628,14.9181331 238.069326,14.9181331 L238.958379,14.9181331 C239.069511,14.9181331 239.125077,14.973699 239.125077,15.0848307 L239.125077,22.1416932 C239.125077,24.753288 240.153045,26.0590854 242.847988,26.0590854 L244.181569,26.0590854 Z M258.156379,25.8923878 L255.822614,25.8923878 C255.655916,25.8923878 255.544784,25.7812562 255.544784,25.6145586 L255.544784,24.6421563 L255.517001,24.6421563 C254.877994,25.5589928 253.627763,26.198 251.738524,26.198 C249.293627,26.198 247.23769,24.9199855 247.23769,22.1139103 C247.23769,19.1967033 249.293627,17.863123 252.599795,17.863123 L255.322521,17.863123 C255.433653,17.863123 255.489219,17.8075572 255.489219,17.6964255 L255.489219,17.0574182 C255.489219,15.5293575 254.766863,14.8347844 252.516446,14.8347844 C251.016168,14.8347844 250.099331,15.2515282 249.460324,15.7516208 C249.32141,15.8627525 249.154712,15.8349696 249.071363,15.696055 L248.043395,13.8623821 C247.960046,13.7234674 247.987829,13.5845528 248.098961,13.5012041 C249.182495,12.7232822 250.65499,12.1954067 252.849841,12.1954067 C256.933931,12.1954067 258.434208,13.5845528 258.434208,16.8629378 L258.434208,25.6145586 C258.434208,25.7812562 258.323077,25.8923878 258.156379,25.8923878 Z M252.516446,23.669754 C254.433467,23.669754 255.489219,22.9196151 255.489219,21.3915543 L255.489219,20.3635861 C255.489219,20.2524544 255.433653,20.1968886 255.322521,20.1968886 L253.099887,20.1968886 C251.099517,20.1968886 250.210463,20.752547 250.210463,22.0027786 C250.210463,23.1140955 251.016168,23.669754 252.516446,23.669754 Z" id="beta" fill="#FFFFFF" opacity="0.757982337"></path>
            <use id="Rectangle-2" stroke="#FFFFFF" mask="url(#mask-2)" stroke-width="6" opacity="0.757982337" xlink:href="#path-1"></use>
        </g>
    </g>
</svg>